%
M48
M72
T01C0.0236
T02C0.0276
T03C0.0315
T04C0.0354
T05C0.0400
%
T01
X12680Y8680
X15180Y8680
X17680Y9180
X15180Y14680
X16180Y16680
X12180Y16180
X10180Y15680
X8180Y17680
X4180Y18180
X3180Y18680
X3180Y13180
T02
X4188Y12180
X5172Y12180
X9180Y16680
X11188Y10680
X12172Y10680
X15688Y10680
X16672Y10680
T03
X7180Y18680
X8180Y18680
X9180Y18680
X10180Y18680
X11180Y18680
X12180Y18680
X13180Y18680
X14180Y18680
X15180Y18680
X16180Y18680
X17180Y18680
X18180Y18680
X19180Y18180
X19180Y17180
X19180Y16180
X19180Y15180
X19180Y14180
X19180Y13180
X18180Y12680
X17180Y12680
X16180Y12680
X15180Y12680
X14180Y12680
X13180Y12680
X12180Y12680
X11180Y12680
X10180Y12680
X9180Y12680
X8180Y12680
X7180Y12680
X7180Y14180
X7180Y15180
X7180Y16180
X7180Y17180
T04
X6680Y11180
X6680Y9680
X6680Y8180
X5180Y8180
X2180Y8180
X9680Y8180
X9680Y9680
X9680Y11180
T05
X4180Y17180
X4180Y16180
X4180Y15180
X4180Y14180
X5180Y14180
X5180Y15180
X5180Y16180
X5180Y17180
X5180Y9680
X4180Y9680
X3180Y9680
X2180Y9680
X13630Y9430
X14730Y9430
X19180Y9180
X19180Y8180
X19180Y10680
X19180Y11680
M30
