G75*
%MOIN*%
%OFA0B0*%
%FSLAX25Y25*%
%IPPOS*%
%LPD*%
%AMOC8*
5,1,8,0,0,1.08239X$1,22.5*
%
%ADD10C,0.00000*%
%ADD11C,0.00600*%
%ADD12C,0.00800*%
%ADD13C,0.00500*%
%ADD14C,0.01000*%
D10*
X0006800Y0006800D02*
X0006800Y0201761D01*
X0205501Y0201761D01*
X0205501Y0006800D01*
X0006800Y0006800D01*
D11*
X0016162Y0112100D02*
X0017230Y0112100D01*
X0018297Y0113168D01*
X0018297Y0115303D01*
X0019365Y0116370D01*
X0020432Y0116370D01*
X0021500Y0115303D01*
X0021500Y0113168D01*
X0020432Y0112100D01*
X0016162Y0112100D02*
X0015095Y0113168D01*
X0015095Y0115303D01*
X0016162Y0116370D01*
X0017230Y0119613D02*
X0017230Y0121748D01*
X0018297Y0122816D01*
X0021500Y0122816D01*
X0021500Y0119613D01*
X0020432Y0118545D01*
X0019365Y0119613D01*
X0019365Y0122816D01*
X0021500Y0124991D02*
X0017230Y0124991D01*
X0017230Y0126059D01*
X0018297Y0127126D01*
X0017230Y0128194D01*
X0018297Y0129261D01*
X0021500Y0129261D01*
X0021500Y0127126D02*
X0018297Y0127126D01*
X0015095Y0137882D02*
X0015095Y0141085D01*
X0016162Y0142152D01*
X0020432Y0142152D01*
X0021500Y0141085D01*
X0021500Y0137882D01*
X0015095Y0137882D01*
X0018297Y0144327D02*
X0017230Y0145395D01*
X0017230Y0147530D01*
X0018297Y0148598D01*
X0019365Y0148598D01*
X0019365Y0144327D01*
X0020432Y0144327D02*
X0018297Y0144327D01*
X0020432Y0144327D02*
X0021500Y0145395D01*
X0021500Y0147530D01*
X0021500Y0150773D02*
X0021500Y0152908D01*
X0021500Y0151841D02*
X0015095Y0151841D01*
X0015095Y0150773D01*
X0020432Y0155070D02*
X0019365Y0156138D01*
X0019365Y0159340D01*
X0018297Y0159340D02*
X0021500Y0159340D01*
X0021500Y0156138D01*
X0020432Y0155070D01*
X0017230Y0156138D02*
X0017230Y0158273D01*
X0018297Y0159340D01*
X0017230Y0161515D02*
X0017230Y0164718D01*
X0018297Y0165786D01*
X0021500Y0165786D01*
X0020432Y0167961D02*
X0018297Y0167961D01*
X0017230Y0169029D01*
X0017230Y0171164D01*
X0018297Y0172231D01*
X0019365Y0172231D01*
X0019365Y0167961D01*
X0020432Y0167961D02*
X0021500Y0169029D01*
X0021500Y0171164D01*
X0020432Y0174406D02*
X0021500Y0175474D01*
X0021500Y0178677D01*
X0022568Y0178677D02*
X0023635Y0177609D01*
X0023635Y0176542D01*
X0022568Y0178677D02*
X0017230Y0178677D01*
X0017230Y0174406D02*
X0020432Y0174406D01*
X0021500Y0161515D02*
X0017230Y0161515D01*
X0017230Y0187297D02*
X0021500Y0189433D01*
X0017230Y0191568D01*
X0016162Y0193743D02*
X0015095Y0194811D01*
X0015095Y0196946D01*
X0016162Y0198013D01*
X0020432Y0193743D01*
X0021500Y0194811D01*
X0021500Y0196946D01*
X0020432Y0198013D01*
X0016162Y0198013D01*
X0016162Y0193743D02*
X0020432Y0193743D01*
X0020432Y0200188D02*
X0020432Y0201256D01*
X0021500Y0201256D01*
X0021500Y0200188D01*
X0020432Y0200188D01*
X0021500Y0203411D02*
X0021500Y0207682D01*
X0021500Y0205546D02*
X0015095Y0205546D01*
X0017230Y0203411D01*
D12*
X0039300Y0176800D02*
X0054300Y0176800D01*
X0056800Y0174300D01*
X0056800Y0169300D01*
X0054300Y0166800D01*
X0056800Y0164300D01*
X0056800Y0159300D01*
X0054300Y0156800D01*
X0056800Y0154300D01*
X0056800Y0149300D01*
X0054300Y0146800D01*
X0056800Y0144300D01*
X0056800Y0139300D01*
X0054300Y0136800D01*
X0039300Y0136800D01*
X0036800Y0139300D01*
X0036800Y0144300D01*
X0039300Y0146800D01*
X0036800Y0149300D01*
X0036800Y0154300D01*
X0039300Y0156800D01*
X0036800Y0159300D01*
X0036800Y0164300D01*
X0039300Y0166800D01*
X0036800Y0169300D01*
X0036800Y0174300D01*
X0039300Y0176800D01*
X0057800Y0144300D02*
X0057800Y0139300D01*
X0056800Y0139300D02*
X0054300Y0136800D01*
X0039300Y0136800D01*
X0036800Y0139300D01*
X0036957Y0121800D02*
X0036960Y0122042D01*
X0036969Y0122283D01*
X0036984Y0122524D01*
X0037004Y0122765D01*
X0037031Y0123005D01*
X0037064Y0123244D01*
X0037102Y0123483D01*
X0037146Y0123720D01*
X0037196Y0123957D01*
X0037252Y0124192D01*
X0037314Y0124425D01*
X0037381Y0124657D01*
X0037454Y0124888D01*
X0037532Y0125116D01*
X0037617Y0125342D01*
X0037706Y0125567D01*
X0037801Y0125789D01*
X0037902Y0126008D01*
X0038008Y0126226D01*
X0038119Y0126440D01*
X0038236Y0126652D01*
X0038357Y0126860D01*
X0038484Y0127066D01*
X0038616Y0127268D01*
X0038753Y0127468D01*
X0038894Y0127663D01*
X0039040Y0127856D01*
X0039191Y0128044D01*
X0039347Y0128229D01*
X0039507Y0128410D01*
X0039671Y0128587D01*
X0039840Y0128760D01*
X0040013Y0128929D01*
X0040190Y0129093D01*
X0040371Y0129253D01*
X0040556Y0129409D01*
X0040744Y0129560D01*
X0040937Y0129706D01*
X0041132Y0129847D01*
X0041332Y0129984D01*
X0041534Y0130116D01*
X0041740Y0130243D01*
X0041948Y0130364D01*
X0042160Y0130481D01*
X0042374Y0130592D01*
X0042592Y0130698D01*
X0042811Y0130799D01*
X0043033Y0130894D01*
X0043258Y0130983D01*
X0043484Y0131068D01*
X0043712Y0131146D01*
X0043943Y0131219D01*
X0044175Y0131286D01*
X0044408Y0131348D01*
X0044643Y0131404D01*
X0044880Y0131454D01*
X0045117Y0131498D01*
X0045356Y0131536D01*
X0045595Y0131569D01*
X0045835Y0131596D01*
X0046076Y0131616D01*
X0046317Y0131631D01*
X0046558Y0131640D01*
X0046800Y0131643D01*
X0047042Y0131640D01*
X0047283Y0131631D01*
X0047524Y0131616D01*
X0047765Y0131596D01*
X0048005Y0131569D01*
X0048244Y0131536D01*
X0048483Y0131498D01*
X0048720Y0131454D01*
X0048957Y0131404D01*
X0049192Y0131348D01*
X0049425Y0131286D01*
X0049657Y0131219D01*
X0049888Y0131146D01*
X0050116Y0131068D01*
X0050342Y0130983D01*
X0050567Y0130894D01*
X0050789Y0130799D01*
X0051008Y0130698D01*
X0051226Y0130592D01*
X0051440Y0130481D01*
X0051652Y0130364D01*
X0051860Y0130243D01*
X0052066Y0130116D01*
X0052268Y0129984D01*
X0052468Y0129847D01*
X0052663Y0129706D01*
X0052856Y0129560D01*
X0053044Y0129409D01*
X0053229Y0129253D01*
X0053410Y0129093D01*
X0053587Y0128929D01*
X0053760Y0128760D01*
X0053929Y0128587D01*
X0054093Y0128410D01*
X0054253Y0128229D01*
X0054409Y0128044D01*
X0054560Y0127856D01*
X0054706Y0127663D01*
X0054847Y0127468D01*
X0054984Y0127268D01*
X0055116Y0127066D01*
X0055243Y0126860D01*
X0055364Y0126652D01*
X0055481Y0126440D01*
X0055592Y0126226D01*
X0055698Y0126008D01*
X0055799Y0125789D01*
X0055894Y0125567D01*
X0055983Y0125342D01*
X0056068Y0125116D01*
X0056146Y0124888D01*
X0056219Y0124657D01*
X0056286Y0124425D01*
X0056348Y0124192D01*
X0056404Y0123957D01*
X0056454Y0123720D01*
X0056498Y0123483D01*
X0056536Y0123244D01*
X0056569Y0123005D01*
X0056596Y0122765D01*
X0056616Y0122524D01*
X0056631Y0122283D01*
X0056640Y0122042D01*
X0056643Y0121800D01*
X0056640Y0121558D01*
X0056631Y0121317D01*
X0056616Y0121076D01*
X0056596Y0120835D01*
X0056569Y0120595D01*
X0056536Y0120356D01*
X0056498Y0120117D01*
X0056454Y0119880D01*
X0056404Y0119643D01*
X0056348Y0119408D01*
X0056286Y0119175D01*
X0056219Y0118943D01*
X0056146Y0118712D01*
X0056068Y0118484D01*
X0055983Y0118258D01*
X0055894Y0118033D01*
X0055799Y0117811D01*
X0055698Y0117592D01*
X0055592Y0117374D01*
X0055481Y0117160D01*
X0055364Y0116948D01*
X0055243Y0116740D01*
X0055116Y0116534D01*
X0054984Y0116332D01*
X0054847Y0116132D01*
X0054706Y0115937D01*
X0054560Y0115744D01*
X0054409Y0115556D01*
X0054253Y0115371D01*
X0054093Y0115190D01*
X0053929Y0115013D01*
X0053760Y0114840D01*
X0053587Y0114671D01*
X0053410Y0114507D01*
X0053229Y0114347D01*
X0053044Y0114191D01*
X0052856Y0114040D01*
X0052663Y0113894D01*
X0052468Y0113753D01*
X0052268Y0113616D01*
X0052066Y0113484D01*
X0051860Y0113357D01*
X0051652Y0113236D01*
X0051440Y0113119D01*
X0051226Y0113008D01*
X0051008Y0112902D01*
X0050789Y0112801D01*
X0050567Y0112706D01*
X0050342Y0112617D01*
X0050116Y0112532D01*
X0049888Y0112454D01*
X0049657Y0112381D01*
X0049425Y0112314D01*
X0049192Y0112252D01*
X0048957Y0112196D01*
X0048720Y0112146D01*
X0048483Y0112102D01*
X0048244Y0112064D01*
X0048005Y0112031D01*
X0047765Y0112004D01*
X0047524Y0111984D01*
X0047283Y0111969D01*
X0047042Y0111960D01*
X0046800Y0111957D01*
X0046558Y0111960D01*
X0046317Y0111969D01*
X0046076Y0111984D01*
X0045835Y0112004D01*
X0045595Y0112031D01*
X0045356Y0112064D01*
X0045117Y0112102D01*
X0044880Y0112146D01*
X0044643Y0112196D01*
X0044408Y0112252D01*
X0044175Y0112314D01*
X0043943Y0112381D01*
X0043712Y0112454D01*
X0043484Y0112532D01*
X0043258Y0112617D01*
X0043033Y0112706D01*
X0042811Y0112801D01*
X0042592Y0112902D01*
X0042374Y0113008D01*
X0042160Y0113119D01*
X0041948Y0113236D01*
X0041740Y0113357D01*
X0041534Y0113484D01*
X0041332Y0113616D01*
X0041132Y0113753D01*
X0040937Y0113894D01*
X0040744Y0114040D01*
X0040556Y0114191D01*
X0040371Y0114347D01*
X0040190Y0114507D01*
X0040013Y0114671D01*
X0039840Y0114840D01*
X0039671Y0115013D01*
X0039507Y0115190D01*
X0039347Y0115371D01*
X0039191Y0115556D01*
X0039040Y0115744D01*
X0038894Y0115937D01*
X0038753Y0116132D01*
X0038616Y0116332D01*
X0038484Y0116534D01*
X0038357Y0116740D01*
X0038236Y0116948D01*
X0038119Y0117160D01*
X0038008Y0117374D01*
X0037902Y0117592D01*
X0037801Y0117811D01*
X0037706Y0118033D01*
X0037617Y0118258D01*
X0037532Y0118484D01*
X0037454Y0118712D01*
X0037381Y0118943D01*
X0037314Y0119175D01*
X0037252Y0119408D01*
X0037196Y0119643D01*
X0037146Y0119880D01*
X0037102Y0120117D01*
X0037064Y0120356D01*
X0037031Y0120595D01*
X0037004Y0120835D01*
X0036984Y0121076D01*
X0036969Y0121317D01*
X0036960Y0121558D01*
X0036957Y0121800D01*
X0041879Y0118300D02*
X0041879Y0114300D01*
X0039879Y0116300D02*
X0043879Y0116300D01*
X0049721Y0116300D02*
X0053721Y0116300D01*
X0054300Y0101800D02*
X0049300Y0101800D01*
X0046800Y0099300D01*
X0044300Y0101800D01*
X0039300Y0101800D01*
X0036800Y0099300D01*
X0034300Y0101800D01*
X0029300Y0101800D01*
X0026800Y0099300D01*
X0024300Y0101800D01*
X0019300Y0101800D01*
X0016800Y0099300D01*
X0016800Y0094300D01*
X0019300Y0091800D01*
X0024300Y0091800D01*
X0026800Y0094300D01*
X0029300Y0091800D01*
X0034300Y0091800D01*
X0036800Y0094300D01*
X0039300Y0091800D01*
X0044300Y0091800D01*
X0046800Y0094300D01*
X0049300Y0091800D01*
X0054300Y0091800D01*
X0056800Y0094300D01*
X0056800Y0099300D01*
X0054300Y0101800D01*
X0070800Y0096800D02*
X0071800Y0096800D01*
X0071800Y0099800D01*
X0091800Y0099800D01*
X0091800Y0096800D01*
X0092800Y0096800D01*
X0091800Y0096800D02*
X0091800Y0093800D01*
X0071800Y0093800D01*
X0071800Y0096800D01*
X0071800Y0084800D02*
X0071800Y0081800D01*
X0070800Y0081800D01*
X0071800Y0081800D02*
X0071800Y0078800D01*
X0091800Y0078800D01*
X0091800Y0081800D01*
X0092800Y0081800D01*
X0091800Y0081800D02*
X0091800Y0084800D01*
X0071800Y0084800D01*
X0047800Y0081800D02*
X0046800Y0081800D01*
X0046800Y0078800D01*
X0026800Y0078800D01*
X0026800Y0081800D01*
X0025800Y0081800D01*
X0026800Y0081800D02*
X0026800Y0084800D01*
X0046800Y0084800D01*
X0046800Y0081800D01*
X0071800Y0108800D02*
X0071800Y0111800D01*
X0070800Y0111800D01*
X0071800Y0111800D02*
X0071800Y0114800D01*
X0091800Y0114800D01*
X0091800Y0111800D01*
X0092800Y0111800D01*
X0091800Y0111800D02*
X0091800Y0108800D01*
X0071800Y0108800D01*
X0109879Y0112300D02*
X0113879Y0112300D01*
X0106957Y0106800D02*
X0106960Y0107042D01*
X0106969Y0107283D01*
X0106984Y0107524D01*
X0107004Y0107765D01*
X0107031Y0108005D01*
X0107064Y0108244D01*
X0107102Y0108483D01*
X0107146Y0108720D01*
X0107196Y0108957D01*
X0107252Y0109192D01*
X0107314Y0109425D01*
X0107381Y0109657D01*
X0107454Y0109888D01*
X0107532Y0110116D01*
X0107617Y0110342D01*
X0107706Y0110567D01*
X0107801Y0110789D01*
X0107902Y0111008D01*
X0108008Y0111226D01*
X0108119Y0111440D01*
X0108236Y0111652D01*
X0108357Y0111860D01*
X0108484Y0112066D01*
X0108616Y0112268D01*
X0108753Y0112468D01*
X0108894Y0112663D01*
X0109040Y0112856D01*
X0109191Y0113044D01*
X0109347Y0113229D01*
X0109507Y0113410D01*
X0109671Y0113587D01*
X0109840Y0113760D01*
X0110013Y0113929D01*
X0110190Y0114093D01*
X0110371Y0114253D01*
X0110556Y0114409D01*
X0110744Y0114560D01*
X0110937Y0114706D01*
X0111132Y0114847D01*
X0111332Y0114984D01*
X0111534Y0115116D01*
X0111740Y0115243D01*
X0111948Y0115364D01*
X0112160Y0115481D01*
X0112374Y0115592D01*
X0112592Y0115698D01*
X0112811Y0115799D01*
X0113033Y0115894D01*
X0113258Y0115983D01*
X0113484Y0116068D01*
X0113712Y0116146D01*
X0113943Y0116219D01*
X0114175Y0116286D01*
X0114408Y0116348D01*
X0114643Y0116404D01*
X0114880Y0116454D01*
X0115117Y0116498D01*
X0115356Y0116536D01*
X0115595Y0116569D01*
X0115835Y0116596D01*
X0116076Y0116616D01*
X0116317Y0116631D01*
X0116558Y0116640D01*
X0116800Y0116643D01*
X0117042Y0116640D01*
X0117283Y0116631D01*
X0117524Y0116616D01*
X0117765Y0116596D01*
X0118005Y0116569D01*
X0118244Y0116536D01*
X0118483Y0116498D01*
X0118720Y0116454D01*
X0118957Y0116404D01*
X0119192Y0116348D01*
X0119425Y0116286D01*
X0119657Y0116219D01*
X0119888Y0116146D01*
X0120116Y0116068D01*
X0120342Y0115983D01*
X0120567Y0115894D01*
X0120789Y0115799D01*
X0121008Y0115698D01*
X0121226Y0115592D01*
X0121440Y0115481D01*
X0121652Y0115364D01*
X0121860Y0115243D01*
X0122066Y0115116D01*
X0122268Y0114984D01*
X0122468Y0114847D01*
X0122663Y0114706D01*
X0122856Y0114560D01*
X0123044Y0114409D01*
X0123229Y0114253D01*
X0123410Y0114093D01*
X0123587Y0113929D01*
X0123760Y0113760D01*
X0123929Y0113587D01*
X0124093Y0113410D01*
X0124253Y0113229D01*
X0124409Y0113044D01*
X0124560Y0112856D01*
X0124706Y0112663D01*
X0124847Y0112468D01*
X0124984Y0112268D01*
X0125116Y0112066D01*
X0125243Y0111860D01*
X0125364Y0111652D01*
X0125481Y0111440D01*
X0125592Y0111226D01*
X0125698Y0111008D01*
X0125799Y0110789D01*
X0125894Y0110567D01*
X0125983Y0110342D01*
X0126068Y0110116D01*
X0126146Y0109888D01*
X0126219Y0109657D01*
X0126286Y0109425D01*
X0126348Y0109192D01*
X0126404Y0108957D01*
X0126454Y0108720D01*
X0126498Y0108483D01*
X0126536Y0108244D01*
X0126569Y0108005D01*
X0126596Y0107765D01*
X0126616Y0107524D01*
X0126631Y0107283D01*
X0126640Y0107042D01*
X0126643Y0106800D01*
X0126640Y0106558D01*
X0126631Y0106317D01*
X0126616Y0106076D01*
X0126596Y0105835D01*
X0126569Y0105595D01*
X0126536Y0105356D01*
X0126498Y0105117D01*
X0126454Y0104880D01*
X0126404Y0104643D01*
X0126348Y0104408D01*
X0126286Y0104175D01*
X0126219Y0103943D01*
X0126146Y0103712D01*
X0126068Y0103484D01*
X0125983Y0103258D01*
X0125894Y0103033D01*
X0125799Y0102811D01*
X0125698Y0102592D01*
X0125592Y0102374D01*
X0125481Y0102160D01*
X0125364Y0101948D01*
X0125243Y0101740D01*
X0125116Y0101534D01*
X0124984Y0101332D01*
X0124847Y0101132D01*
X0124706Y0100937D01*
X0124560Y0100744D01*
X0124409Y0100556D01*
X0124253Y0100371D01*
X0124093Y0100190D01*
X0123929Y0100013D01*
X0123760Y0099840D01*
X0123587Y0099671D01*
X0123410Y0099507D01*
X0123229Y0099347D01*
X0123044Y0099191D01*
X0122856Y0099040D01*
X0122663Y0098894D01*
X0122468Y0098753D01*
X0122268Y0098616D01*
X0122066Y0098484D01*
X0121860Y0098357D01*
X0121652Y0098236D01*
X0121440Y0098119D01*
X0121226Y0098008D01*
X0121008Y0097902D01*
X0120789Y0097801D01*
X0120567Y0097706D01*
X0120342Y0097617D01*
X0120116Y0097532D01*
X0119888Y0097454D01*
X0119657Y0097381D01*
X0119425Y0097314D01*
X0119192Y0097252D01*
X0118957Y0097196D01*
X0118720Y0097146D01*
X0118483Y0097102D01*
X0118244Y0097064D01*
X0118005Y0097031D01*
X0117765Y0097004D01*
X0117524Y0096984D01*
X0117283Y0096969D01*
X0117042Y0096960D01*
X0116800Y0096957D01*
X0116558Y0096960D01*
X0116317Y0096969D01*
X0116076Y0096984D01*
X0115835Y0097004D01*
X0115595Y0097031D01*
X0115356Y0097064D01*
X0115117Y0097102D01*
X0114880Y0097146D01*
X0114643Y0097196D01*
X0114408Y0097252D01*
X0114175Y0097314D01*
X0113943Y0097381D01*
X0113712Y0097454D01*
X0113484Y0097532D01*
X0113258Y0097617D01*
X0113033Y0097706D01*
X0112811Y0097801D01*
X0112592Y0097902D01*
X0112374Y0098008D01*
X0112160Y0098119D01*
X0111948Y0098236D01*
X0111740Y0098357D01*
X0111534Y0098484D01*
X0111332Y0098616D01*
X0111132Y0098753D01*
X0110937Y0098894D01*
X0110744Y0099040D01*
X0110556Y0099191D01*
X0110371Y0099347D01*
X0110190Y0099507D01*
X0110013Y0099671D01*
X0109840Y0099840D01*
X0109671Y0100013D01*
X0109507Y0100190D01*
X0109347Y0100371D01*
X0109191Y0100556D01*
X0109040Y0100744D01*
X0108894Y0100937D01*
X0108753Y0101132D01*
X0108616Y0101332D01*
X0108484Y0101534D01*
X0108357Y0101740D01*
X0108236Y0101948D01*
X0108119Y0102160D01*
X0108008Y0102374D01*
X0107902Y0102592D01*
X0107801Y0102811D01*
X0107706Y0103033D01*
X0107617Y0103258D01*
X0107532Y0103484D01*
X0107454Y0103712D01*
X0107381Y0103943D01*
X0107314Y0104175D01*
X0107252Y0104408D01*
X0107196Y0104643D01*
X0107146Y0104880D01*
X0107102Y0105117D01*
X0107064Y0105356D01*
X0107031Y0105595D01*
X0107004Y0105835D01*
X0106984Y0106076D01*
X0106969Y0106317D01*
X0106960Y0106558D01*
X0106957Y0106800D01*
X0119721Y0112300D02*
X0123721Y0112300D01*
X0121721Y0114300D02*
X0121721Y0110300D01*
X0154879Y0101300D02*
X0158879Y0101300D01*
X0156879Y0099300D02*
X0156879Y0103300D01*
X0151957Y0106800D02*
X0151960Y0107042D01*
X0151969Y0107283D01*
X0151984Y0107524D01*
X0152004Y0107765D01*
X0152031Y0108005D01*
X0152064Y0108244D01*
X0152102Y0108483D01*
X0152146Y0108720D01*
X0152196Y0108957D01*
X0152252Y0109192D01*
X0152314Y0109425D01*
X0152381Y0109657D01*
X0152454Y0109888D01*
X0152532Y0110116D01*
X0152617Y0110342D01*
X0152706Y0110567D01*
X0152801Y0110789D01*
X0152902Y0111008D01*
X0153008Y0111226D01*
X0153119Y0111440D01*
X0153236Y0111652D01*
X0153357Y0111860D01*
X0153484Y0112066D01*
X0153616Y0112268D01*
X0153753Y0112468D01*
X0153894Y0112663D01*
X0154040Y0112856D01*
X0154191Y0113044D01*
X0154347Y0113229D01*
X0154507Y0113410D01*
X0154671Y0113587D01*
X0154840Y0113760D01*
X0155013Y0113929D01*
X0155190Y0114093D01*
X0155371Y0114253D01*
X0155556Y0114409D01*
X0155744Y0114560D01*
X0155937Y0114706D01*
X0156132Y0114847D01*
X0156332Y0114984D01*
X0156534Y0115116D01*
X0156740Y0115243D01*
X0156948Y0115364D01*
X0157160Y0115481D01*
X0157374Y0115592D01*
X0157592Y0115698D01*
X0157811Y0115799D01*
X0158033Y0115894D01*
X0158258Y0115983D01*
X0158484Y0116068D01*
X0158712Y0116146D01*
X0158943Y0116219D01*
X0159175Y0116286D01*
X0159408Y0116348D01*
X0159643Y0116404D01*
X0159880Y0116454D01*
X0160117Y0116498D01*
X0160356Y0116536D01*
X0160595Y0116569D01*
X0160835Y0116596D01*
X0161076Y0116616D01*
X0161317Y0116631D01*
X0161558Y0116640D01*
X0161800Y0116643D01*
X0162042Y0116640D01*
X0162283Y0116631D01*
X0162524Y0116616D01*
X0162765Y0116596D01*
X0163005Y0116569D01*
X0163244Y0116536D01*
X0163483Y0116498D01*
X0163720Y0116454D01*
X0163957Y0116404D01*
X0164192Y0116348D01*
X0164425Y0116286D01*
X0164657Y0116219D01*
X0164888Y0116146D01*
X0165116Y0116068D01*
X0165342Y0115983D01*
X0165567Y0115894D01*
X0165789Y0115799D01*
X0166008Y0115698D01*
X0166226Y0115592D01*
X0166440Y0115481D01*
X0166652Y0115364D01*
X0166860Y0115243D01*
X0167066Y0115116D01*
X0167268Y0114984D01*
X0167468Y0114847D01*
X0167663Y0114706D01*
X0167856Y0114560D01*
X0168044Y0114409D01*
X0168229Y0114253D01*
X0168410Y0114093D01*
X0168587Y0113929D01*
X0168760Y0113760D01*
X0168929Y0113587D01*
X0169093Y0113410D01*
X0169253Y0113229D01*
X0169409Y0113044D01*
X0169560Y0112856D01*
X0169706Y0112663D01*
X0169847Y0112468D01*
X0169984Y0112268D01*
X0170116Y0112066D01*
X0170243Y0111860D01*
X0170364Y0111652D01*
X0170481Y0111440D01*
X0170592Y0111226D01*
X0170698Y0111008D01*
X0170799Y0110789D01*
X0170894Y0110567D01*
X0170983Y0110342D01*
X0171068Y0110116D01*
X0171146Y0109888D01*
X0171219Y0109657D01*
X0171286Y0109425D01*
X0171348Y0109192D01*
X0171404Y0108957D01*
X0171454Y0108720D01*
X0171498Y0108483D01*
X0171536Y0108244D01*
X0171569Y0108005D01*
X0171596Y0107765D01*
X0171616Y0107524D01*
X0171631Y0107283D01*
X0171640Y0107042D01*
X0171643Y0106800D01*
X0171640Y0106558D01*
X0171631Y0106317D01*
X0171616Y0106076D01*
X0171596Y0105835D01*
X0171569Y0105595D01*
X0171536Y0105356D01*
X0171498Y0105117D01*
X0171454Y0104880D01*
X0171404Y0104643D01*
X0171348Y0104408D01*
X0171286Y0104175D01*
X0171219Y0103943D01*
X0171146Y0103712D01*
X0171068Y0103484D01*
X0170983Y0103258D01*
X0170894Y0103033D01*
X0170799Y0102811D01*
X0170698Y0102592D01*
X0170592Y0102374D01*
X0170481Y0102160D01*
X0170364Y0101948D01*
X0170243Y0101740D01*
X0170116Y0101534D01*
X0169984Y0101332D01*
X0169847Y0101132D01*
X0169706Y0100937D01*
X0169560Y0100744D01*
X0169409Y0100556D01*
X0169253Y0100371D01*
X0169093Y0100190D01*
X0168929Y0100013D01*
X0168760Y0099840D01*
X0168587Y0099671D01*
X0168410Y0099507D01*
X0168229Y0099347D01*
X0168044Y0099191D01*
X0167856Y0099040D01*
X0167663Y0098894D01*
X0167468Y0098753D01*
X0167268Y0098616D01*
X0167066Y0098484D01*
X0166860Y0098357D01*
X0166652Y0098236D01*
X0166440Y0098119D01*
X0166226Y0098008D01*
X0166008Y0097902D01*
X0165789Y0097801D01*
X0165567Y0097706D01*
X0165342Y0097617D01*
X0165116Y0097532D01*
X0164888Y0097454D01*
X0164657Y0097381D01*
X0164425Y0097314D01*
X0164192Y0097252D01*
X0163957Y0097196D01*
X0163720Y0097146D01*
X0163483Y0097102D01*
X0163244Y0097064D01*
X0163005Y0097031D01*
X0162765Y0097004D01*
X0162524Y0096984D01*
X0162283Y0096969D01*
X0162042Y0096960D01*
X0161800Y0096957D01*
X0161558Y0096960D01*
X0161317Y0096969D01*
X0161076Y0096984D01*
X0160835Y0097004D01*
X0160595Y0097031D01*
X0160356Y0097064D01*
X0160117Y0097102D01*
X0159880Y0097146D01*
X0159643Y0097196D01*
X0159408Y0097252D01*
X0159175Y0097314D01*
X0158943Y0097381D01*
X0158712Y0097454D01*
X0158484Y0097532D01*
X0158258Y0097617D01*
X0158033Y0097706D01*
X0157811Y0097801D01*
X0157592Y0097902D01*
X0157374Y0098008D01*
X0157160Y0098119D01*
X0156948Y0098236D01*
X0156740Y0098357D01*
X0156534Y0098484D01*
X0156332Y0098616D01*
X0156132Y0098753D01*
X0155937Y0098894D01*
X0155744Y0099040D01*
X0155556Y0099191D01*
X0155371Y0099347D01*
X0155190Y0099507D01*
X0155013Y0099671D01*
X0154840Y0099840D01*
X0154671Y0100013D01*
X0154507Y0100190D01*
X0154347Y0100371D01*
X0154191Y0100556D01*
X0154040Y0100744D01*
X0153894Y0100937D01*
X0153753Y0101132D01*
X0153616Y0101332D01*
X0153484Y0101534D01*
X0153357Y0101740D01*
X0153236Y0101948D01*
X0153119Y0102160D01*
X0153008Y0102374D01*
X0152902Y0102592D01*
X0152801Y0102811D01*
X0152706Y0103033D01*
X0152617Y0103258D01*
X0152532Y0103484D01*
X0152454Y0103712D01*
X0152381Y0103943D01*
X0152314Y0104175D01*
X0152252Y0104408D01*
X0152196Y0104643D01*
X0152146Y0104880D01*
X0152102Y0105117D01*
X0152064Y0105356D01*
X0152031Y0105595D01*
X0152004Y0105835D01*
X0151984Y0106076D01*
X0151969Y0106317D01*
X0151960Y0106558D01*
X0151957Y0106800D01*
X0164721Y0101300D02*
X0168721Y0101300D01*
X0186800Y0104300D02*
X0189300Y0101800D01*
X0194300Y0101800D01*
X0196800Y0104300D01*
X0196800Y0109300D01*
X0194300Y0111800D01*
X0196800Y0114300D01*
X0196800Y0119300D01*
X0194300Y0121800D01*
X0189300Y0121800D01*
X0186800Y0119300D01*
X0186800Y0114300D01*
X0189300Y0111800D01*
X0186800Y0109300D01*
X0186800Y0104300D01*
X0189300Y0096800D02*
X0186800Y0094300D01*
X0186800Y0089300D01*
X0189300Y0086800D01*
X0186800Y0084300D01*
X0186800Y0079300D01*
X0189300Y0076800D01*
X0194300Y0076800D01*
X0196800Y0079300D01*
X0196800Y0084300D01*
X0194300Y0086800D01*
X0196800Y0089300D01*
X0196800Y0094300D01*
X0194300Y0096800D01*
X0189300Y0096800D01*
D13*
X0186050Y0102050D02*
X0184148Y0102050D01*
X0184148Y0103001D01*
X0184465Y0103318D01*
X0184782Y0103318D01*
X0185099Y0103001D01*
X0185099Y0102050D01*
X0185099Y0103001D02*
X0185416Y0103318D01*
X0185733Y0103318D01*
X0186050Y0103001D01*
X0186050Y0102050D01*
X0186050Y0104260D02*
X0184782Y0104260D01*
X0184148Y0104894D01*
X0184782Y0105528D01*
X0186050Y0105528D01*
X0185099Y0105528D02*
X0185099Y0104260D01*
X0184148Y0106470D02*
X0184148Y0107737D01*
X0184148Y0107104D02*
X0186050Y0107104D01*
X0186050Y0109314D02*
X0184148Y0109314D01*
X0184148Y0109947D02*
X0184148Y0108680D01*
X0197548Y0096108D02*
X0199450Y0096108D01*
X0198816Y0095474D01*
X0199450Y0094840D01*
X0197548Y0094840D01*
X0197865Y0093898D02*
X0197548Y0093581D01*
X0197548Y0092947D01*
X0197865Y0092630D01*
X0198182Y0092630D01*
X0198499Y0092947D01*
X0198499Y0093581D01*
X0198816Y0093898D01*
X0199133Y0093898D01*
X0199450Y0093581D01*
X0199450Y0092947D01*
X0199133Y0092630D01*
X0199133Y0091688D02*
X0197865Y0091688D01*
X0197548Y0091371D01*
X0197548Y0090420D01*
X0199450Y0090420D01*
X0199450Y0091371D01*
X0199133Y0091688D01*
X0199450Y0089478D02*
X0198816Y0088844D01*
X0198816Y0089161D02*
X0198816Y0088210D01*
X0199450Y0088210D02*
X0197548Y0088210D01*
X0197548Y0089161D01*
X0197865Y0089478D01*
X0198499Y0089478D01*
X0198816Y0089161D01*
X0163318Y0094467D02*
X0163001Y0094150D01*
X0162367Y0094150D01*
X0162050Y0094467D01*
X0162684Y0095101D02*
X0163001Y0095101D01*
X0163318Y0094784D01*
X0163318Y0094467D01*
X0163001Y0095101D02*
X0163318Y0095418D01*
X0163318Y0095735D01*
X0163001Y0096052D01*
X0162367Y0096052D01*
X0162050Y0095735D01*
X0161108Y0095735D02*
X0160791Y0096052D01*
X0160157Y0096052D01*
X0159840Y0095735D01*
X0159840Y0094467D01*
X0160157Y0094150D01*
X0160791Y0094150D01*
X0161108Y0094467D01*
X0118318Y0117550D02*
X0117050Y0117550D01*
X0118318Y0118818D01*
X0118318Y0119135D01*
X0118001Y0119452D01*
X0117367Y0119452D01*
X0117050Y0119135D01*
X0116108Y0119135D02*
X0115791Y0119452D01*
X0115157Y0119452D01*
X0114840Y0119135D01*
X0114840Y0117867D01*
X0115157Y0117550D01*
X0115791Y0117550D01*
X0116108Y0117867D01*
X0083318Y0107552D02*
X0082050Y0107552D01*
X0082050Y0106601D01*
X0082684Y0106918D01*
X0083001Y0106918D01*
X0083318Y0106601D01*
X0083318Y0105967D01*
X0083001Y0105650D01*
X0082367Y0105650D01*
X0082050Y0105967D01*
X0081108Y0105650D02*
X0080474Y0106284D01*
X0080791Y0106284D02*
X0079840Y0106284D01*
X0079840Y0105650D02*
X0079840Y0107552D01*
X0080791Y0107552D01*
X0081108Y0107235D01*
X0081108Y0106601D01*
X0080791Y0106284D01*
X0080791Y0102952D02*
X0081108Y0102635D01*
X0081108Y0102001D01*
X0080791Y0101684D01*
X0079840Y0101684D01*
X0080474Y0101684D02*
X0081108Y0101050D01*
X0079840Y0101050D02*
X0079840Y0102952D01*
X0080791Y0102952D01*
X0082050Y0102001D02*
X0083318Y0102001D01*
X0083001Y0102952D02*
X0082050Y0102001D01*
X0083001Y0101050D02*
X0083001Y0102952D01*
X0082684Y0087952D02*
X0082684Y0086050D01*
X0082050Y0086050D02*
X0083318Y0086050D01*
X0082050Y0087318D02*
X0082684Y0087952D01*
X0081108Y0087635D02*
X0081108Y0087001D01*
X0080791Y0086684D01*
X0079840Y0086684D01*
X0080474Y0086684D02*
X0081108Y0086050D01*
X0079840Y0086050D02*
X0079840Y0087952D01*
X0080791Y0087952D01*
X0081108Y0087635D01*
X0056108Y0089150D02*
X0054840Y0089150D01*
X0056108Y0090418D01*
X0056108Y0090735D01*
X0055791Y0091052D01*
X0055157Y0091052D01*
X0054840Y0090735D01*
X0053898Y0090735D02*
X0053581Y0091052D01*
X0052947Y0091052D01*
X0052630Y0090735D01*
X0051688Y0091052D02*
X0050420Y0091052D01*
X0051054Y0091052D02*
X0051054Y0089150D01*
X0049478Y0089150D02*
X0049478Y0091052D01*
X0049478Y0090101D02*
X0048210Y0090101D01*
X0048210Y0089150D02*
X0048210Y0091052D01*
X0047268Y0090735D02*
X0046951Y0091052D01*
X0046001Y0091052D01*
X0046001Y0089150D01*
X0046951Y0089150D01*
X0047268Y0089467D01*
X0047268Y0090735D01*
X0052630Y0089150D02*
X0053898Y0090418D01*
X0053898Y0090735D01*
X0053898Y0089150D02*
X0052630Y0089150D01*
X0038318Y0077235D02*
X0038001Y0077552D01*
X0037367Y0077552D01*
X0037050Y0077235D01*
X0036108Y0077235D02*
X0036108Y0076601D01*
X0035791Y0076284D01*
X0034840Y0076284D01*
X0035474Y0076284D02*
X0036108Y0075650D01*
X0037050Y0075650D02*
X0038318Y0076918D01*
X0038318Y0077235D01*
X0038318Y0075650D02*
X0037050Y0075650D01*
X0036108Y0077235D02*
X0035791Y0077552D01*
X0034840Y0077552D01*
X0034840Y0075650D01*
X0045157Y0109150D02*
X0044840Y0109467D01*
X0044840Y0110735D01*
X0045157Y0111052D01*
X0045791Y0111052D01*
X0046108Y0110735D01*
X0047050Y0110418D02*
X0047684Y0111052D01*
X0047684Y0109150D01*
X0047050Y0109150D02*
X0048318Y0109150D01*
X0046108Y0109467D02*
X0045791Y0109150D01*
X0045157Y0109150D01*
X0035550Y0137050D02*
X0033648Y0137050D01*
X0035550Y0138318D01*
X0033648Y0138318D01*
X0033648Y0139260D02*
X0033648Y0140211D01*
X0033965Y0140528D01*
X0034599Y0140528D01*
X0034916Y0140211D01*
X0034916Y0139260D01*
X0034916Y0139894D02*
X0035550Y0140528D01*
X0035550Y0141470D02*
X0033648Y0141470D01*
X0033648Y0142738D01*
X0033965Y0143680D02*
X0033648Y0143997D01*
X0033648Y0144630D01*
X0033965Y0144947D01*
X0034282Y0144947D01*
X0035550Y0143680D01*
X0035550Y0144947D01*
X0034599Y0145890D02*
X0034599Y0147157D01*
X0033648Y0146840D02*
X0034599Y0145890D01*
X0035550Y0146840D02*
X0033648Y0146840D01*
X0033648Y0148099D02*
X0035550Y0148099D01*
X0035550Y0149367D01*
X0035233Y0150309D02*
X0033965Y0151577D01*
X0035233Y0151577D01*
X0035550Y0151260D01*
X0035550Y0150626D01*
X0035233Y0150309D01*
X0033965Y0150309D01*
X0033648Y0150626D01*
X0033648Y0151260D01*
X0033965Y0151577D01*
X0034282Y0152519D02*
X0033648Y0153153D01*
X0035550Y0153153D01*
X0035550Y0152519D02*
X0035550Y0153787D01*
X0034599Y0154729D02*
X0034599Y0155997D01*
X0033965Y0155363D02*
X0035233Y0155363D01*
X0034599Y0142104D02*
X0034599Y0141470D01*
X0035550Y0139260D02*
X0033648Y0139260D01*
D14*
X0131300Y0099300D02*
X0131300Y0089300D01*
X0152300Y0089300D01*
X0152300Y0099300D01*
X0131300Y0099300D01*
X0141800Y0096800D02*
X0141800Y0091800D01*
M02*
