G75*
%MOIN*%
%OFA0B0*%
%FSLAX25Y25*%
%IPPOS*%
%LPD*%
%AMOC8*
5,1,8,0,0,1.08239X$1,22.5*
%
%ADD10C,0.00000*%
%ADD11R,0.06900X0.06900*%
%ADD12C,0.06900*%
%ADD13C,0.07800*%
%ADD14C,0.05550*%
%ADD15C,0.00500*%
%ADD16R,0.04534X0.04534*%
D10*
X0006800Y0006800D02*
X0006800Y0201761D01*
X0205501Y0201761D01*
X0205501Y0006800D01*
X0006800Y0006800D01*
D11*
X0121721Y0106800D03*
X0156879Y0106800D03*
X0041879Y0121800D03*
D12*
X0051721Y0121800D03*
X0111879Y0106800D03*
X0166721Y0106800D03*
D13*
X0191800Y0106800D03*
X0191800Y0116800D03*
X0191800Y0091800D03*
X0191800Y0081800D03*
X0096800Y0081800D03*
X0096800Y0096800D03*
X0096800Y0111800D03*
X0066800Y0111800D03*
X0066800Y0096800D03*
X0066800Y0081800D03*
X0051800Y0081800D03*
X0051800Y0096800D03*
X0041800Y0096800D03*
X0031800Y0096800D03*
X0021800Y0096800D03*
X0021800Y0081800D03*
X0041800Y0141800D03*
X0041800Y0151800D03*
X0041800Y0161800D03*
X0041800Y0171800D03*
X0051800Y0171800D03*
X0051800Y0161800D03*
X0051800Y0151800D03*
X0051800Y0141800D03*
D14*
X0069225Y0141800D02*
X0074375Y0141800D01*
X0074375Y0151800D02*
X0069225Y0151800D01*
X0069225Y0161800D02*
X0074375Y0161800D01*
X0074375Y0171800D02*
X0069225Y0171800D01*
X0071800Y0184225D02*
X0071800Y0189375D01*
X0081800Y0189375D02*
X0081800Y0184225D01*
X0091800Y0184225D02*
X0091800Y0189375D01*
X0101800Y0189375D02*
X0101800Y0184225D01*
X0111800Y0184225D02*
X0111800Y0189375D01*
X0121800Y0189375D02*
X0121800Y0184225D01*
X0131800Y0184225D02*
X0131800Y0189375D01*
X0141800Y0189375D02*
X0141800Y0184225D01*
X0151800Y0184225D02*
X0151800Y0189375D01*
X0161800Y0189375D02*
X0161800Y0184225D01*
X0171800Y0184225D02*
X0171800Y0189375D01*
X0181800Y0189375D02*
X0181800Y0184225D01*
X0189225Y0181800D02*
X0194375Y0181800D01*
X0194375Y0171800D02*
X0189225Y0171800D01*
X0189225Y0161800D02*
X0194375Y0161800D01*
X0194375Y0151800D02*
X0189225Y0151800D01*
X0189225Y0141800D02*
X0194375Y0141800D01*
X0194375Y0131800D02*
X0189225Y0131800D01*
X0181800Y0129375D02*
X0181800Y0124225D01*
X0171800Y0124225D02*
X0171800Y0129375D01*
X0161800Y0129375D02*
X0161800Y0124225D01*
X0151800Y0124225D02*
X0151800Y0129375D01*
X0141800Y0129375D02*
X0141800Y0124225D01*
X0131800Y0124225D02*
X0131800Y0129375D01*
X0121800Y0129375D02*
X0121800Y0124225D01*
X0111800Y0124225D02*
X0111800Y0129375D01*
X0101800Y0129375D02*
X0101800Y0124225D01*
X0091800Y0124225D02*
X0091800Y0129375D01*
X0081800Y0129375D02*
X0081800Y0124225D01*
X0071800Y0124225D02*
X0071800Y0129375D01*
D15*
X0134747Y0095067D02*
X0134956Y0095392D01*
X0135231Y0095663D01*
X0135560Y0095866D01*
X0135926Y0095990D01*
X0136310Y0096030D01*
X0136691Y0095996D01*
X0137056Y0095878D01*
X0137385Y0095682D01*
X0137662Y0095418D01*
X0137873Y0095098D01*
X0138008Y0094740D01*
X0138060Y0094360D01*
X0138025Y0093960D01*
X0137902Y0093577D01*
X0137696Y0093231D01*
X0137419Y0092940D01*
X0137084Y0092718D01*
X0136708Y0092575D01*
X0136310Y0092520D01*
X0135917Y0092572D01*
X0135545Y0092709D01*
X0135213Y0092925D01*
X0134938Y0093210D01*
X0134732Y0093549D01*
X0134608Y0093926D01*
X0134570Y0094320D01*
X0134617Y0094704D01*
X0134747Y0095067D01*
X0134736Y0095037D02*
X0137896Y0095037D01*
X0138036Y0094538D02*
X0134596Y0094538D01*
X0134597Y0094039D02*
X0138032Y0094039D01*
X0137880Y0093541D02*
X0134737Y0093541D01*
X0135100Y0093042D02*
X0137517Y0093042D01*
X0136480Y0092544D02*
X0136129Y0092544D01*
X0135101Y0095535D02*
X0137539Y0095535D01*
X0145617Y0094538D02*
X0149056Y0094538D01*
X0149080Y0094360D02*
X0149045Y0093960D01*
X0148922Y0093577D01*
X0148716Y0093231D01*
X0148439Y0092940D01*
X0148104Y0092718D01*
X0147728Y0092575D01*
X0147330Y0092520D01*
X0146937Y0092572D01*
X0146565Y0092709D01*
X0146233Y0092925D01*
X0145958Y0093210D01*
X0145752Y0093549D01*
X0145628Y0093926D01*
X0145590Y0094320D01*
X0145637Y0094704D01*
X0145767Y0095067D01*
X0145976Y0095392D01*
X0146251Y0095663D01*
X0146580Y0095866D01*
X0146946Y0095990D01*
X0147330Y0096030D01*
X0147711Y0095996D01*
X0148076Y0095878D01*
X0148405Y0095682D01*
X0148682Y0095418D01*
X0148893Y0095098D01*
X0149028Y0094740D01*
X0149080Y0094360D01*
X0149052Y0094039D02*
X0145617Y0094039D01*
X0145757Y0093541D02*
X0148900Y0093541D01*
X0148537Y0093042D02*
X0146120Y0093042D01*
X0147149Y0092544D02*
X0147500Y0092544D01*
X0148917Y0095037D02*
X0145756Y0095037D01*
X0146121Y0095535D02*
X0148559Y0095535D01*
D16*
X0091800Y0166800D03*
M02*
