G75*
%MOIN*%
%OFA0B0*%
%FSLAX25Y25*%
%IPPOS*%
%LPD*%
%AMOC8*
5,1,8,0,0,1.08239X$1,22.5*
%
%ADD10C,0.00000*%
%ADD11R,0.06500X0.06500*%
%ADD12C,0.06500*%
%ADD13C,0.07400*%
%ADD14C,0.05150*%
%ADD15C,0.08000*%
%ADD16C,0.01600*%
%ADD17R,0.03562X0.03562*%
%ADD18R,0.04134X0.04134*%
D10*
X0006800Y0006800D02*
X0006800Y0201761D01*
X0205501Y0201761D01*
X0205501Y0006800D01*
X0006800Y0006800D01*
D11*
X0121721Y0106800D03*
X0156879Y0106800D03*
X0041879Y0121800D03*
D12*
X0051721Y0121800D03*
X0111879Y0106800D03*
X0166721Y0106800D03*
D13*
X0191800Y0106800D03*
X0191800Y0116800D03*
X0191800Y0091800D03*
X0191800Y0081800D03*
X0096800Y0081800D03*
X0096800Y0096800D03*
X0096800Y0111800D03*
X0066800Y0111800D03*
X0066800Y0096800D03*
X0066800Y0081800D03*
X0051800Y0081800D03*
X0051800Y0096800D03*
X0041800Y0096800D03*
X0031800Y0096800D03*
X0021800Y0096800D03*
X0021800Y0081800D03*
X0041800Y0141800D03*
X0041800Y0151800D03*
X0041800Y0161800D03*
X0041800Y0171800D03*
X0051800Y0171800D03*
X0051800Y0161800D03*
X0051800Y0151800D03*
X0051800Y0141800D03*
D14*
X0069225Y0141800D02*
X0074375Y0141800D01*
X0074375Y0151800D02*
X0069225Y0151800D01*
X0069225Y0161800D02*
X0074375Y0161800D01*
X0074375Y0171800D02*
X0069225Y0171800D01*
X0071800Y0184225D02*
X0071800Y0189375D01*
X0081800Y0189375D02*
X0081800Y0184225D01*
X0091800Y0184225D02*
X0091800Y0189375D01*
X0101800Y0189375D02*
X0101800Y0184225D01*
X0111800Y0184225D02*
X0111800Y0189375D01*
X0121800Y0189375D02*
X0121800Y0184225D01*
X0131800Y0184225D02*
X0131800Y0189375D01*
X0141800Y0189375D02*
X0141800Y0184225D01*
X0151800Y0184225D02*
X0151800Y0189375D01*
X0161800Y0189375D02*
X0161800Y0184225D01*
X0171800Y0184225D02*
X0171800Y0189375D01*
X0181800Y0189375D02*
X0181800Y0184225D01*
X0189225Y0181800D02*
X0194375Y0181800D01*
X0194375Y0171800D02*
X0189225Y0171800D01*
X0189225Y0161800D02*
X0194375Y0161800D01*
X0194375Y0151800D02*
X0189225Y0151800D01*
X0189225Y0141800D02*
X0194375Y0141800D01*
X0194375Y0131800D02*
X0189225Y0131800D01*
X0181800Y0129375D02*
X0181800Y0124225D01*
X0171800Y0124225D02*
X0171800Y0129375D01*
X0161800Y0129375D02*
X0161800Y0124225D01*
X0151800Y0124225D02*
X0151800Y0129375D01*
X0141800Y0129375D02*
X0141800Y0124225D01*
X0131800Y0124225D02*
X0131800Y0129375D01*
X0121800Y0129375D02*
X0121800Y0124225D01*
X0111800Y0124225D02*
X0111800Y0129375D01*
X0101800Y0129375D02*
X0101800Y0124225D01*
X0091800Y0124225D02*
X0091800Y0129375D01*
X0081800Y0129375D02*
X0081800Y0124225D01*
X0071800Y0124225D02*
X0071800Y0129375D01*
D15*
X0136300Y0094300D03*
X0147300Y0094300D03*
D16*
X0147500Y0094500D02*
X0147100Y0094500D01*
X0147100Y0100100D01*
X0146844Y0100100D01*
X0145942Y0099957D01*
X0145074Y0099675D01*
X0144260Y0099261D01*
X0143522Y0098724D01*
X0142876Y0098078D01*
X0142339Y0097340D01*
X0141925Y0096526D01*
X0141643Y0095658D01*
X0141596Y0095363D01*
X0140793Y0097302D01*
X0139302Y0098793D01*
X0137354Y0099600D01*
X0135246Y0099600D01*
X0133298Y0098793D01*
X0131807Y0097302D01*
X0131000Y0095354D01*
X0131000Y0093246D01*
X0131807Y0091298D01*
X0133298Y0089807D01*
X0135246Y0089000D01*
X0137354Y0089000D01*
X0139302Y0089807D01*
X0140793Y0091298D01*
X0141596Y0093236D01*
X0141643Y0092942D01*
X0141925Y0092074D01*
X0142339Y0091260D01*
X0142876Y0090522D01*
X0143522Y0089876D01*
X0144260Y0089339D01*
X0145074Y0088925D01*
X0145942Y0088643D01*
X0146844Y0088500D01*
X0147100Y0088500D01*
X0147100Y0094100D01*
X0147500Y0094100D01*
X0147500Y0094500D01*
X0153100Y0094500D01*
X0153100Y0094756D01*
X0152957Y0095658D01*
X0152675Y0096526D01*
X0152261Y0097340D01*
X0151724Y0098078D01*
X0151078Y0098724D01*
X0150340Y0099261D01*
X0149526Y0099675D01*
X0148658Y0099957D01*
X0147756Y0100100D01*
X0147500Y0100100D01*
X0147500Y0094500D01*
X0147500Y0094718D02*
X0147100Y0094718D01*
X0147500Y0094100D02*
X0153100Y0094100D01*
X0153100Y0093844D01*
X0152957Y0092942D01*
X0152675Y0092074D01*
X0152261Y0091260D01*
X0151724Y0090522D01*
X0151078Y0089876D01*
X0150340Y0089339D01*
X0149526Y0088925D01*
X0148658Y0088643D01*
X0147756Y0088500D01*
X0147500Y0088500D01*
X0147500Y0094100D01*
X0147500Y0093120D02*
X0147100Y0093120D01*
X0147100Y0091521D02*
X0147500Y0091521D01*
X0147500Y0089923D02*
X0147100Y0089923D01*
X0143475Y0089923D02*
X0139418Y0089923D01*
X0140886Y0091521D02*
X0142206Y0091521D01*
X0141615Y0093120D02*
X0141548Y0093120D01*
X0141857Y0096317D02*
X0141201Y0096317D01*
X0140180Y0097915D02*
X0142757Y0097915D01*
X0144757Y0099514D02*
X0137563Y0099514D01*
X0135037Y0099514D02*
X0128900Y0099514D01*
X0128900Y0101112D02*
X0203701Y0101112D01*
X0203701Y0099514D02*
X0149843Y0099514D01*
X0147500Y0099514D02*
X0147100Y0099514D01*
X0147100Y0097915D02*
X0147500Y0097915D01*
X0147500Y0096317D02*
X0147100Y0096317D01*
X0151843Y0097915D02*
X0203701Y0097915D01*
X0203701Y0096317D02*
X0193961Y0096317D01*
X0194632Y0096039D02*
X0192795Y0096800D01*
X0190805Y0096800D01*
X0188968Y0096039D01*
X0187561Y0094632D01*
X0186800Y0092795D01*
X0186800Y0090805D01*
X0187561Y0088968D01*
X0188968Y0087561D01*
X0190805Y0086800D01*
X0192795Y0086800D01*
X0194632Y0087561D01*
X0196039Y0088968D01*
X0196800Y0090805D01*
X0196800Y0092795D01*
X0196039Y0094632D01*
X0194632Y0096039D01*
X0195953Y0094718D02*
X0203701Y0094718D01*
X0203701Y0093120D02*
X0196665Y0093120D01*
X0196800Y0091521D02*
X0203701Y0091521D01*
X0203701Y0089923D02*
X0196434Y0089923D01*
X0195395Y0088324D02*
X0203701Y0088324D01*
X0203701Y0086726D02*
X0192974Y0086726D01*
X0192795Y0086800D02*
X0190805Y0086800D01*
X0188968Y0086039D01*
X0187561Y0084632D01*
X0186800Y0082795D01*
X0186800Y0080805D01*
X0187561Y0078968D01*
X0188968Y0077561D01*
X0190805Y0076800D01*
X0192795Y0076800D01*
X0194632Y0077561D01*
X0196039Y0078968D01*
X0196800Y0080805D01*
X0196800Y0082795D01*
X0196039Y0084632D01*
X0194632Y0086039D01*
X0192795Y0086800D01*
X0190626Y0086726D02*
X0129881Y0086726D01*
X0129881Y0088324D02*
X0188205Y0088324D01*
X0187166Y0089923D02*
X0151125Y0089923D01*
X0152394Y0091521D02*
X0186800Y0091521D01*
X0186935Y0093120D02*
X0152985Y0093120D01*
X0153100Y0094718D02*
X0187647Y0094718D01*
X0189639Y0096317D02*
X0152743Y0096317D01*
X0153090Y0102250D02*
X0160667Y0102250D01*
X0161429Y0103012D01*
X0161429Y0110588D01*
X0160667Y0111350D01*
X0153090Y0111350D01*
X0152329Y0110588D01*
X0152329Y0103012D01*
X0153090Y0102250D01*
X0152630Y0102711D02*
X0128900Y0102711D01*
X0128900Y0104309D02*
X0152329Y0104309D01*
X0152329Y0105908D02*
X0128900Y0105908D01*
X0128900Y0107506D02*
X0152329Y0107506D01*
X0152329Y0109105D02*
X0128900Y0109105D01*
X0128900Y0110703D02*
X0152444Y0110703D01*
X0161314Y0110703D02*
X0163502Y0110703D01*
X0163431Y0110652D02*
X0164074Y0111119D01*
X0164783Y0111480D01*
X0165539Y0111726D01*
X0166324Y0111850D01*
X0166721Y0111850D01*
X0166721Y0106800D01*
X0166721Y0106800D01*
X0161671Y0106800D01*
X0161671Y0106403D01*
X0161796Y0105617D01*
X0162041Y0104861D01*
X0162402Y0104153D01*
X0162869Y0103510D01*
X0163431Y0102948D01*
X0164074Y0102481D01*
X0164783Y0102120D01*
X0165539Y0101874D01*
X0166324Y0101750D01*
X0166721Y0101750D01*
X0166721Y0106800D01*
X0161671Y0106800D01*
X0161671Y0107197D01*
X0161796Y0107983D01*
X0162041Y0108739D01*
X0162402Y0109447D01*
X0162869Y0110090D01*
X0163431Y0110652D01*
X0162228Y0109105D02*
X0161429Y0109105D01*
X0161429Y0107506D02*
X0161720Y0107506D01*
X0161750Y0105908D02*
X0161429Y0105908D01*
X0161429Y0104309D02*
X0162323Y0104309D01*
X0161128Y0102711D02*
X0163758Y0102711D01*
X0166721Y0102711D02*
X0166721Y0102711D01*
X0166721Y0101750D02*
X0167119Y0101750D01*
X0167904Y0101874D01*
X0168660Y0102120D01*
X0169368Y0102481D01*
X0170011Y0102948D01*
X0170573Y0103510D01*
X0171040Y0104153D01*
X0171401Y0104861D01*
X0171647Y0105617D01*
X0171771Y0106403D01*
X0171771Y0106800D01*
X0171771Y0107197D01*
X0171647Y0107983D01*
X0171401Y0108739D01*
X0171040Y0109447D01*
X0170573Y0110090D01*
X0170011Y0110652D01*
X0169368Y0111119D01*
X0168660Y0111480D01*
X0167904Y0111726D01*
X0167119Y0111850D01*
X0166721Y0111850D01*
X0166721Y0106800D01*
X0166721Y0106800D01*
X0166721Y0106800D01*
X0166721Y0101750D01*
X0166721Y0104309D02*
X0166721Y0104309D01*
X0166721Y0105908D02*
X0166721Y0105908D01*
X0166721Y0106800D02*
X0166721Y0106800D01*
X0171771Y0106800D01*
X0166721Y0106800D01*
X0166721Y0107506D02*
X0166721Y0107506D01*
X0166721Y0109105D02*
X0166721Y0109105D01*
X0166721Y0110703D02*
X0166721Y0110703D01*
X0169940Y0110703D02*
X0188632Y0110703D01*
X0188968Y0111039D02*
X0187561Y0109632D01*
X0186800Y0107795D01*
X0186800Y0105805D01*
X0187561Y0103968D01*
X0188968Y0102561D01*
X0190805Y0101800D01*
X0192795Y0101800D01*
X0194632Y0102561D01*
X0196039Y0103968D01*
X0196800Y0105805D01*
X0196800Y0107795D01*
X0196039Y0109632D01*
X0194632Y0111039D01*
X0193417Y0111542D01*
X0193911Y0111703D01*
X0194683Y0112096D01*
X0195383Y0112605D01*
X0195995Y0113217D01*
X0196504Y0113917D01*
X0196897Y0114689D01*
X0197165Y0115512D01*
X0197300Y0116367D01*
X0197300Y0116600D01*
X0192000Y0116600D01*
X0192000Y0117000D01*
X0197300Y0117000D01*
X0197300Y0117233D01*
X0197165Y0118088D01*
X0196897Y0118911D01*
X0196504Y0119683D01*
X0195995Y0120383D01*
X0195383Y0120995D01*
X0194683Y0121504D01*
X0193911Y0121897D01*
X0193088Y0122165D01*
X0192233Y0122300D01*
X0192000Y0122300D01*
X0192000Y0117000D01*
X0191600Y0117000D01*
X0191600Y0122300D01*
X0191367Y0122300D01*
X0190512Y0122165D01*
X0189689Y0121897D01*
X0188917Y0121504D01*
X0188217Y0120995D01*
X0187605Y0120383D01*
X0187096Y0119683D01*
X0186703Y0118911D01*
X0186435Y0118088D01*
X0186300Y0117233D01*
X0186300Y0117000D01*
X0191600Y0117000D01*
X0191600Y0116600D01*
X0186300Y0116600D01*
X0186300Y0116367D01*
X0186435Y0115512D01*
X0186703Y0114689D01*
X0187096Y0113917D01*
X0187605Y0113217D01*
X0188217Y0112605D01*
X0188917Y0112096D01*
X0189689Y0111703D01*
X0190183Y0111542D01*
X0188968Y0111039D01*
X0188634Y0112302D02*
X0128900Y0112302D01*
X0128900Y0113900D02*
X0187108Y0113900D01*
X0186440Y0115499D02*
X0128900Y0115499D01*
X0128900Y0117097D02*
X0186300Y0117097D01*
X0186633Y0118696D02*
X0128900Y0118696D01*
X0128900Y0120294D02*
X0169878Y0120294D01*
X0170121Y0120171D02*
X0170776Y0119958D01*
X0171456Y0119850D01*
X0171800Y0119850D01*
X0171800Y0126800D01*
X0171800Y0126800D01*
X0171800Y0133750D01*
X0171456Y0133750D01*
X0170776Y0133642D01*
X0170121Y0133429D01*
X0169507Y0133116D01*
X0168950Y0132712D01*
X0168463Y0132225D01*
X0168058Y0131668D01*
X0167746Y0131054D01*
X0167533Y0130399D01*
X0167425Y0129719D01*
X0167425Y0126800D01*
X0171800Y0126800D01*
X0176175Y0126800D01*
X0176175Y0129719D01*
X0176067Y0130399D01*
X0175854Y0131054D01*
X0175542Y0131668D01*
X0175137Y0132225D01*
X0174650Y0132712D01*
X0174093Y0133116D01*
X0173479Y0133429D01*
X0172824Y0133642D01*
X0172144Y0133750D01*
X0171800Y0133750D01*
X0171800Y0126800D01*
X0171800Y0126800D01*
X0171800Y0126800D01*
X0176175Y0126800D01*
X0176175Y0123881D01*
X0176067Y0123201D01*
X0175854Y0122546D01*
X0175542Y0121932D01*
X0175137Y0121375D01*
X0174650Y0120888D01*
X0174093Y0120484D01*
X0173479Y0120171D01*
X0172824Y0119958D01*
X0172144Y0119850D01*
X0171800Y0119850D01*
X0171800Y0126800D01*
X0171800Y0126800D01*
X0167425Y0126800D01*
X0167425Y0123881D01*
X0167533Y0123201D01*
X0167746Y0122546D01*
X0168058Y0121932D01*
X0168463Y0121375D01*
X0168950Y0120888D01*
X0169507Y0120484D01*
X0170121Y0120171D01*
X0171800Y0120294D02*
X0171800Y0120294D01*
X0171800Y0121893D02*
X0171800Y0121893D01*
X0171800Y0123491D02*
X0171800Y0123491D01*
X0171800Y0125090D02*
X0171800Y0125090D01*
X0171800Y0126688D02*
X0171800Y0126688D01*
X0171800Y0128287D02*
X0171800Y0128287D01*
X0171800Y0129885D02*
X0171800Y0129885D01*
X0171800Y0131484D02*
X0171800Y0131484D01*
X0171800Y0133082D02*
X0171800Y0133082D01*
X0169460Y0133082D02*
X0162974Y0133082D01*
X0162571Y0133250D02*
X0161029Y0133250D01*
X0159605Y0132660D01*
X0158515Y0131570D01*
X0157925Y0130146D01*
X0157925Y0123454D01*
X0158515Y0122030D01*
X0159605Y0120940D01*
X0161029Y0120350D01*
X0162571Y0120350D01*
X0163995Y0120940D01*
X0165085Y0122030D01*
X0165675Y0123454D01*
X0165675Y0130146D01*
X0165085Y0131570D01*
X0163995Y0132660D01*
X0162571Y0133250D01*
X0160626Y0133082D02*
X0152974Y0133082D01*
X0152571Y0133250D02*
X0151029Y0133250D01*
X0149605Y0132660D01*
X0148515Y0131570D01*
X0147925Y0130146D01*
X0147925Y0123454D01*
X0148515Y0122030D01*
X0149605Y0120940D01*
X0151029Y0120350D01*
X0152571Y0120350D01*
X0153995Y0120940D01*
X0155085Y0122030D01*
X0155675Y0123454D01*
X0155675Y0130146D01*
X0155085Y0131570D01*
X0153995Y0132660D01*
X0152571Y0133250D01*
X0150626Y0133082D02*
X0142974Y0133082D01*
X0142571Y0133250D02*
X0141029Y0133250D01*
X0139605Y0132660D01*
X0138515Y0131570D01*
X0137925Y0130146D01*
X0137925Y0123454D01*
X0138515Y0122030D01*
X0139605Y0120940D01*
X0141029Y0120350D01*
X0142571Y0120350D01*
X0143995Y0120940D01*
X0145085Y0122030D01*
X0145675Y0123454D01*
X0145675Y0130146D01*
X0145085Y0131570D01*
X0143995Y0132660D01*
X0142571Y0133250D01*
X0140626Y0133082D02*
X0132974Y0133082D01*
X0132571Y0133250D02*
X0131029Y0133250D01*
X0129605Y0132660D01*
X0128900Y0131955D01*
X0128900Y0181645D01*
X0129605Y0180940D01*
X0131029Y0180350D01*
X0132571Y0180350D01*
X0133995Y0180940D01*
X0135085Y0182030D01*
X0135675Y0183454D01*
X0135675Y0190146D01*
X0135085Y0191570D01*
X0133995Y0192660D01*
X0132571Y0193250D01*
X0131029Y0193250D01*
X0129605Y0192660D01*
X0128515Y0191570D01*
X0127925Y0190146D01*
X0127925Y0188900D01*
X0125930Y0188900D01*
X0125675Y0188645D01*
X0125675Y0190146D01*
X0125085Y0191570D01*
X0123995Y0192660D01*
X0122571Y0193250D01*
X0121029Y0193250D01*
X0119605Y0192660D01*
X0118515Y0191570D01*
X0117925Y0190146D01*
X0117925Y0183454D01*
X0118515Y0182030D01*
X0119605Y0180940D01*
X0121029Y0180350D01*
X0122571Y0180350D01*
X0123995Y0180940D01*
X0124700Y0181645D01*
X0124700Y0131955D01*
X0123995Y0132660D01*
X0122571Y0133250D01*
X0121029Y0133250D01*
X0119605Y0132660D01*
X0118515Y0131570D01*
X0117925Y0130146D01*
X0117925Y0123454D01*
X0118515Y0122030D01*
X0119605Y0120940D01*
X0121029Y0120350D01*
X0122571Y0120350D01*
X0123995Y0120940D01*
X0124700Y0121645D01*
X0124700Y0111350D01*
X0117933Y0111350D01*
X0117171Y0110588D01*
X0117171Y0103012D01*
X0117933Y0102250D01*
X0124700Y0102250D01*
X0124700Y0089881D01*
X0124480Y0089881D01*
X0123719Y0089120D01*
X0123719Y0084480D01*
X0124480Y0083719D01*
X0129120Y0083719D01*
X0129881Y0084480D01*
X0129881Y0089120D01*
X0129120Y0089881D01*
X0128900Y0089881D01*
X0128900Y0121645D01*
X0129605Y0120940D01*
X0131029Y0120350D01*
X0132571Y0120350D01*
X0133995Y0120940D01*
X0135085Y0122030D01*
X0135675Y0123454D01*
X0135675Y0130146D01*
X0135085Y0131570D01*
X0133995Y0132660D01*
X0132571Y0133250D01*
X0130626Y0133082D02*
X0128900Y0133082D01*
X0128900Y0134681D02*
X0186626Y0134681D01*
X0187030Y0135085D02*
X0185940Y0133995D01*
X0185350Y0132571D01*
X0185350Y0131029D01*
X0185940Y0129605D01*
X0187030Y0128515D01*
X0188454Y0127925D01*
X0195146Y0127925D01*
X0196570Y0128515D01*
X0197660Y0129605D01*
X0198250Y0131029D01*
X0198250Y0132571D01*
X0197660Y0133995D01*
X0196570Y0135085D01*
X0195146Y0135675D01*
X0188454Y0135675D01*
X0187030Y0135085D01*
X0185562Y0133082D02*
X0182974Y0133082D01*
X0182571Y0133250D02*
X0181029Y0133250D01*
X0179605Y0132660D01*
X0178515Y0131570D01*
X0177925Y0130146D01*
X0177925Y0123454D01*
X0178515Y0122030D01*
X0179605Y0120940D01*
X0181029Y0120350D01*
X0182571Y0120350D01*
X0183995Y0120940D01*
X0185085Y0122030D01*
X0185675Y0123454D01*
X0185675Y0130146D01*
X0185085Y0131570D01*
X0183995Y0132660D01*
X0182571Y0133250D01*
X0180626Y0133082D02*
X0174140Y0133082D01*
X0175635Y0131484D02*
X0178480Y0131484D01*
X0177925Y0129885D02*
X0176148Y0129885D01*
X0176175Y0128287D02*
X0177925Y0128287D01*
X0177925Y0126688D02*
X0176175Y0126688D01*
X0176175Y0125090D02*
X0177925Y0125090D01*
X0177925Y0123491D02*
X0176113Y0123491D01*
X0175513Y0121893D02*
X0178653Y0121893D01*
X0173722Y0120294D02*
X0187540Y0120294D01*
X0189680Y0121893D02*
X0184947Y0121893D01*
X0185675Y0123491D02*
X0203701Y0123491D01*
X0203701Y0121893D02*
X0193920Y0121893D01*
X0192000Y0121893D02*
X0191600Y0121893D01*
X0191600Y0120294D02*
X0192000Y0120294D01*
X0192000Y0118696D02*
X0191600Y0118696D01*
X0191600Y0117097D02*
X0192000Y0117097D01*
X0196060Y0120294D02*
X0203701Y0120294D01*
X0203701Y0118696D02*
X0196967Y0118696D01*
X0197300Y0117097D02*
X0203701Y0117097D01*
X0203701Y0115499D02*
X0197160Y0115499D01*
X0196492Y0113900D02*
X0203701Y0113900D01*
X0203701Y0112302D02*
X0194966Y0112302D01*
X0194968Y0110703D02*
X0203701Y0110703D01*
X0203701Y0109105D02*
X0196257Y0109105D01*
X0196800Y0107506D02*
X0203701Y0107506D01*
X0203701Y0105908D02*
X0196800Y0105908D01*
X0196180Y0104309D02*
X0203701Y0104309D01*
X0203701Y0102711D02*
X0194782Y0102711D01*
X0188818Y0102711D02*
X0169684Y0102711D01*
X0171120Y0104309D02*
X0187420Y0104309D01*
X0186800Y0105908D02*
X0171693Y0105908D01*
X0171722Y0107506D02*
X0186800Y0107506D01*
X0187343Y0109105D02*
X0171215Y0109105D01*
X0168087Y0121893D02*
X0164947Y0121893D01*
X0165675Y0123491D02*
X0167487Y0123491D01*
X0167425Y0125090D02*
X0165675Y0125090D01*
X0165675Y0126688D02*
X0167425Y0126688D01*
X0167425Y0128287D02*
X0165675Y0128287D01*
X0165675Y0129885D02*
X0167452Y0129885D01*
X0167965Y0131484D02*
X0165120Y0131484D01*
X0158480Y0131484D02*
X0155120Y0131484D01*
X0155675Y0129885D02*
X0157925Y0129885D01*
X0157925Y0128287D02*
X0155675Y0128287D01*
X0155675Y0126688D02*
X0157925Y0126688D01*
X0157925Y0125090D02*
X0155675Y0125090D01*
X0155675Y0123491D02*
X0157925Y0123491D01*
X0158653Y0121893D02*
X0154947Y0121893D01*
X0148653Y0121893D02*
X0144947Y0121893D01*
X0145675Y0123491D02*
X0147925Y0123491D01*
X0147925Y0125090D02*
X0145675Y0125090D01*
X0145675Y0126688D02*
X0147925Y0126688D01*
X0147925Y0128287D02*
X0145675Y0128287D01*
X0145675Y0129885D02*
X0147925Y0129885D01*
X0148480Y0131484D02*
X0145120Y0131484D01*
X0138480Y0131484D02*
X0135120Y0131484D01*
X0135675Y0129885D02*
X0137925Y0129885D01*
X0137925Y0128287D02*
X0135675Y0128287D01*
X0135675Y0126688D02*
X0137925Y0126688D01*
X0137925Y0125090D02*
X0135675Y0125090D01*
X0135675Y0123491D02*
X0137925Y0123491D01*
X0138653Y0121893D02*
X0134947Y0121893D01*
X0124700Y0120294D02*
X0056542Y0120294D01*
X0056647Y0120617D02*
X0056771Y0121403D01*
X0056771Y0121800D01*
X0056771Y0122197D01*
X0056647Y0122983D01*
X0056401Y0123739D01*
X0056040Y0124447D01*
X0055573Y0125090D01*
X0055011Y0125652D01*
X0054368Y0126119D01*
X0053660Y0126480D01*
X0052904Y0126726D01*
X0052119Y0126850D01*
X0051721Y0126850D01*
X0051324Y0126850D01*
X0050539Y0126726D01*
X0049783Y0126480D01*
X0049074Y0126119D01*
X0048431Y0125652D01*
X0047869Y0125090D01*
X0046429Y0125090D01*
X0046429Y0125588D02*
X0045667Y0126350D01*
X0038090Y0126350D01*
X0037329Y0125588D01*
X0037329Y0118012D01*
X0038090Y0117250D01*
X0045667Y0117250D01*
X0046429Y0118012D01*
X0046429Y0125588D01*
X0047402Y0124447D02*
X0047041Y0123739D01*
X0046796Y0122983D01*
X0046671Y0122197D01*
X0046671Y0121800D01*
X0046671Y0121403D01*
X0046796Y0120617D01*
X0047041Y0119861D01*
X0047402Y0119153D01*
X0047869Y0118510D01*
X0048431Y0117948D01*
X0049074Y0117481D01*
X0049783Y0117120D01*
X0050539Y0116874D01*
X0051324Y0116750D01*
X0051721Y0116750D01*
X0051721Y0121800D01*
X0051721Y0121800D01*
X0046671Y0121800D01*
X0051721Y0121800D01*
X0051721Y0121800D01*
X0051721Y0126850D01*
X0051721Y0121800D01*
X0051721Y0121800D01*
X0051721Y0116750D01*
X0052119Y0116750D01*
X0052904Y0116874D01*
X0053660Y0117120D01*
X0054368Y0117481D01*
X0055011Y0117948D01*
X0055573Y0118510D01*
X0056040Y0119153D01*
X0056401Y0119861D01*
X0056647Y0120617D01*
X0056771Y0121800D02*
X0051721Y0121800D01*
X0056771Y0121800D01*
X0056771Y0121893D02*
X0068653Y0121893D01*
X0068515Y0122030D02*
X0069605Y0120940D01*
X0071029Y0120350D01*
X0072571Y0120350D01*
X0073995Y0120940D01*
X0075085Y0122030D01*
X0075675Y0123454D01*
X0075675Y0130146D01*
X0075085Y0131570D01*
X0073995Y0132660D01*
X0073900Y0132699D01*
X0073900Y0134615D01*
X0070590Y0137925D01*
X0075146Y0137925D01*
X0076570Y0138515D01*
X0077660Y0139605D01*
X0078250Y0141029D01*
X0078250Y0142381D01*
X0079700Y0140930D01*
X0079700Y0132699D01*
X0079605Y0132660D01*
X0078515Y0131570D01*
X0077925Y0130146D01*
X0077925Y0123454D01*
X0078515Y0122030D01*
X0079605Y0120940D01*
X0081029Y0120350D01*
X0082571Y0120350D01*
X0083995Y0120940D01*
X0085085Y0122030D01*
X0085675Y0123454D01*
X0085675Y0130146D01*
X0085085Y0131570D01*
X0083995Y0132660D01*
X0083900Y0132699D01*
X0083900Y0142670D01*
X0082670Y0143900D01*
X0077670Y0148900D01*
X0076955Y0148900D01*
X0077660Y0149605D01*
X0078250Y0151029D01*
X0078250Y0152571D01*
X0077660Y0153995D01*
X0076570Y0155085D01*
X0075507Y0155525D01*
X0098719Y0155525D01*
X0098719Y0154480D01*
X0099480Y0153719D01*
X0104120Y0153719D01*
X0104881Y0154480D01*
X0104881Y0159120D01*
X0104120Y0159881D01*
X0099480Y0159881D01*
X0099325Y0159725D01*
X0077709Y0159725D01*
X0078250Y0161029D01*
X0078250Y0162571D01*
X0077660Y0163995D01*
X0076570Y0165085D01*
X0075507Y0165525D01*
X0088433Y0165525D01*
X0088433Y0164195D01*
X0089195Y0163433D01*
X0094405Y0163433D01*
X0095167Y0164195D01*
X0095167Y0169405D01*
X0094405Y0170167D01*
X0089195Y0170167D01*
X0088753Y0169725D01*
X0077709Y0169725D01*
X0078250Y0171029D01*
X0078250Y0172571D01*
X0077660Y0173995D01*
X0076955Y0174700D01*
X0078719Y0174700D01*
X0078719Y0174480D01*
X0079480Y0173719D01*
X0084120Y0173719D01*
X0084881Y0174480D01*
X0084881Y0179120D01*
X0084120Y0179881D01*
X0079480Y0179881D01*
X0078719Y0179120D01*
X0078719Y0178900D01*
X0067670Y0178900D01*
X0062670Y0183900D01*
X0044881Y0183900D01*
X0044881Y0184120D01*
X0044120Y0184881D01*
X0039480Y0184881D01*
X0038719Y0184120D01*
X0038719Y0179480D01*
X0039480Y0178719D01*
X0044120Y0178719D01*
X0044881Y0179480D01*
X0044881Y0179700D01*
X0060930Y0179700D01*
X0064700Y0175930D01*
X0065930Y0174700D01*
X0066645Y0174700D01*
X0065940Y0173995D01*
X0065400Y0172691D01*
X0064191Y0173900D01*
X0056342Y0173900D01*
X0056039Y0174632D01*
X0054632Y0176039D01*
X0052795Y0176800D01*
X0050805Y0176800D01*
X0048968Y0176039D01*
X0047561Y0174632D01*
X0046800Y0172795D01*
X0046800Y0170805D01*
X0047561Y0168968D01*
X0048968Y0167561D01*
X0050805Y0166800D01*
X0048968Y0166039D01*
X0047561Y0164632D01*
X0046800Y0162795D01*
X0046039Y0164632D01*
X0044632Y0166039D01*
X0042795Y0166800D01*
X0040805Y0166800D01*
X0038968Y0166039D01*
X0037561Y0164632D01*
X0036800Y0162795D01*
X0036800Y0160805D01*
X0037561Y0158968D01*
X0038968Y0157561D01*
X0040805Y0156800D01*
X0038968Y0156039D01*
X0037561Y0154632D01*
X0036800Y0152795D01*
X0036800Y0150805D01*
X0037561Y0148968D01*
X0038968Y0147561D01*
X0040805Y0146800D01*
X0038968Y0146039D01*
X0037561Y0144632D01*
X0036800Y0142795D01*
X0036800Y0140805D01*
X0037561Y0138968D01*
X0038968Y0137561D01*
X0040805Y0136800D01*
X0042795Y0136800D01*
X0044632Y0137561D01*
X0046039Y0138968D01*
X0046542Y0140183D01*
X0046703Y0139689D01*
X0047096Y0138917D01*
X0047605Y0138217D01*
X0048217Y0137605D01*
X0048917Y0137096D01*
X0049689Y0136703D01*
X0050512Y0136435D01*
X0051367Y0136300D01*
X0051600Y0136300D01*
X0051600Y0141600D01*
X0052000Y0141600D01*
X0052000Y0142000D01*
X0057300Y0142000D01*
X0057300Y0142233D01*
X0057165Y0143088D01*
X0056897Y0143911D01*
X0056504Y0144683D01*
X0056491Y0144700D01*
X0057876Y0144700D01*
X0069700Y0132876D01*
X0069700Y0132699D01*
X0069605Y0132660D01*
X0068515Y0131570D01*
X0067925Y0130146D01*
X0067925Y0123454D01*
X0068515Y0122030D01*
X0067925Y0123491D02*
X0056482Y0123491D01*
X0055573Y0125090D02*
X0067925Y0125090D01*
X0067925Y0126688D02*
X0053019Y0126688D01*
X0051721Y0126688D02*
X0051721Y0126688D01*
X0050424Y0126688D02*
X0008600Y0126688D01*
X0008600Y0125090D02*
X0037329Y0125090D01*
X0037329Y0123491D02*
X0008600Y0123491D01*
X0008600Y0121893D02*
X0037329Y0121893D01*
X0037329Y0120294D02*
X0008600Y0120294D01*
X0008600Y0118696D02*
X0037329Y0118696D01*
X0046429Y0118696D02*
X0047734Y0118696D01*
X0046901Y0120294D02*
X0046429Y0120294D01*
X0046429Y0121893D02*
X0046671Y0121893D01*
X0046429Y0123491D02*
X0046961Y0123491D01*
X0047402Y0124447D02*
X0047869Y0125090D01*
X0051721Y0125090D02*
X0051721Y0125090D01*
X0051721Y0123491D02*
X0051721Y0123491D01*
X0051721Y0121893D02*
X0051721Y0121893D01*
X0051721Y0121800D02*
X0051721Y0121800D01*
X0051721Y0120294D02*
X0051721Y0120294D01*
X0051721Y0118696D02*
X0051721Y0118696D01*
X0051721Y0117097D02*
X0051721Y0117097D01*
X0049853Y0117097D02*
X0008600Y0117097D01*
X0008600Y0115499D02*
X0063428Y0115499D01*
X0063968Y0116039D02*
X0062561Y0114632D01*
X0061800Y0112795D01*
X0061800Y0110805D01*
X0062561Y0108968D01*
X0063968Y0107561D01*
X0065805Y0106800D01*
X0067795Y0106800D01*
X0069632Y0107561D01*
X0071039Y0108968D01*
X0071800Y0110805D01*
X0071800Y0112795D01*
X0071039Y0114632D01*
X0069632Y0116039D01*
X0067795Y0116800D01*
X0065805Y0116800D01*
X0063968Y0116039D01*
X0062258Y0113900D02*
X0008600Y0113900D01*
X0008600Y0112302D02*
X0061800Y0112302D01*
X0061842Y0110703D02*
X0008600Y0110703D01*
X0008600Y0109105D02*
X0062504Y0109105D01*
X0064100Y0107506D02*
X0008600Y0107506D01*
X0008600Y0105908D02*
X0106907Y0105908D01*
X0106953Y0105617D02*
X0107199Y0104861D01*
X0107560Y0104153D01*
X0108027Y0103510D01*
X0108589Y0102948D01*
X0109232Y0102481D01*
X0109940Y0102120D01*
X0110696Y0101874D01*
X0111481Y0101750D01*
X0111879Y0101750D01*
X0112276Y0101750D01*
X0113061Y0101874D01*
X0113817Y0102120D01*
X0114526Y0102481D01*
X0115169Y0102948D01*
X0115731Y0103510D01*
X0116198Y0104153D01*
X0116559Y0104861D01*
X0116804Y0105617D01*
X0116929Y0106403D01*
X0116929Y0106800D01*
X0116929Y0107197D01*
X0116804Y0107983D01*
X0116559Y0108739D01*
X0116198Y0109447D01*
X0115731Y0110090D01*
X0115169Y0110652D01*
X0114526Y0111119D01*
X0113817Y0111480D01*
X0113061Y0111726D01*
X0112276Y0111850D01*
X0111879Y0111850D01*
X0111879Y0106800D01*
X0116929Y0106800D01*
X0111879Y0106800D01*
X0111879Y0106800D01*
X0111879Y0106800D01*
X0111879Y0101750D01*
X0111879Y0106800D01*
X0111879Y0106800D01*
X0111879Y0111850D01*
X0111481Y0111850D01*
X0110696Y0111726D01*
X0109940Y0111480D01*
X0109232Y0111119D01*
X0108589Y0110652D01*
X0108027Y0110090D01*
X0107560Y0109447D01*
X0107199Y0108739D01*
X0106953Y0107983D01*
X0106829Y0107197D01*
X0106829Y0106800D01*
X0106829Y0106403D01*
X0106953Y0105617D01*
X0106829Y0106800D02*
X0111879Y0106800D01*
X0111879Y0106800D01*
X0106829Y0106800D01*
X0106878Y0107506D02*
X0099499Y0107506D01*
X0099632Y0107561D02*
X0101039Y0108968D01*
X0101800Y0110805D01*
X0101800Y0112795D01*
X0101039Y0114632D01*
X0099632Y0116039D01*
X0097795Y0116800D01*
X0095805Y0116800D01*
X0093968Y0116039D01*
X0092561Y0114632D01*
X0091800Y0112795D01*
X0091800Y0110805D01*
X0092561Y0108968D01*
X0093968Y0107561D01*
X0095805Y0106800D01*
X0097795Y0106800D01*
X0099632Y0107561D01*
X0101096Y0109105D02*
X0107385Y0109105D01*
X0108660Y0110703D02*
X0101758Y0110703D01*
X0101800Y0112302D02*
X0124700Y0112302D01*
X0124700Y0113900D02*
X0101342Y0113900D01*
X0100172Y0115499D02*
X0124700Y0115499D01*
X0124700Y0117097D02*
X0053590Y0117097D01*
X0055708Y0118696D02*
X0124700Y0118696D01*
X0118653Y0121893D02*
X0114947Y0121893D01*
X0115085Y0122030D02*
X0115675Y0123454D01*
X0115675Y0130146D01*
X0115085Y0131570D01*
X0113995Y0132660D01*
X0112571Y0133250D01*
X0111029Y0133250D01*
X0109605Y0132660D01*
X0108515Y0131570D01*
X0107925Y0130146D01*
X0107925Y0123454D01*
X0108515Y0122030D01*
X0109605Y0120940D01*
X0111029Y0120350D01*
X0112571Y0120350D01*
X0113995Y0120940D01*
X0115085Y0122030D01*
X0115675Y0123491D02*
X0117925Y0123491D01*
X0117925Y0125090D02*
X0115675Y0125090D01*
X0115675Y0126688D02*
X0117925Y0126688D01*
X0117925Y0128287D02*
X0115675Y0128287D01*
X0115675Y0129885D02*
X0117925Y0129885D01*
X0118480Y0131484D02*
X0115120Y0131484D01*
X0112974Y0133082D02*
X0120626Y0133082D01*
X0122974Y0133082D02*
X0124700Y0133082D01*
X0124700Y0134681D02*
X0083900Y0134681D01*
X0083900Y0136279D02*
X0124700Y0136279D01*
X0124700Y0137878D02*
X0083900Y0137878D01*
X0083900Y0139476D02*
X0124700Y0139476D01*
X0124700Y0141075D02*
X0083900Y0141075D01*
X0083896Y0142673D02*
X0124700Y0142673D01*
X0124700Y0144272D02*
X0082298Y0144272D01*
X0080699Y0145870D02*
X0124700Y0145870D01*
X0124700Y0147469D02*
X0079101Y0147469D01*
X0077122Y0149068D02*
X0124700Y0149068D01*
X0124700Y0150666D02*
X0078099Y0150666D01*
X0078250Y0152265D02*
X0124700Y0152265D01*
X0124700Y0153863D02*
X0104264Y0153863D01*
X0104881Y0155462D02*
X0124700Y0155462D01*
X0124700Y0157060D02*
X0104881Y0157060D01*
X0104881Y0158659D02*
X0124700Y0158659D01*
X0124700Y0160257D02*
X0077930Y0160257D01*
X0078250Y0161856D02*
X0124700Y0161856D01*
X0124700Y0163454D02*
X0094426Y0163454D01*
X0095167Y0165053D02*
X0124700Y0165053D01*
X0124700Y0166651D02*
X0095167Y0166651D01*
X0095167Y0168250D02*
X0124700Y0168250D01*
X0124700Y0169848D02*
X0094724Y0169848D01*
X0091800Y0166800D02*
X0090975Y0167625D01*
X0067496Y0167625D01*
X0063321Y0171800D01*
X0051800Y0171800D01*
X0055321Y0168250D02*
X0063902Y0168250D01*
X0062451Y0169700D02*
X0065396Y0166755D01*
X0066626Y0165525D01*
X0068093Y0165525D01*
X0067030Y0165085D01*
X0065940Y0163995D01*
X0065400Y0162691D01*
X0064191Y0163900D01*
X0056342Y0163900D01*
X0056039Y0164632D01*
X0054632Y0166039D01*
X0052795Y0166800D01*
X0050805Y0166800D01*
X0052795Y0166800D01*
X0054632Y0167561D01*
X0056039Y0168968D01*
X0056342Y0169700D01*
X0062451Y0169700D01*
X0065500Y0166651D02*
X0053154Y0166651D01*
X0050446Y0166651D02*
X0043154Y0166651D01*
X0042795Y0166800D02*
X0044632Y0167561D01*
X0046039Y0168968D01*
X0046800Y0170805D01*
X0046800Y0172795D01*
X0046039Y0174632D01*
X0044632Y0176039D01*
X0042795Y0176800D01*
X0040805Y0176800D01*
X0038968Y0176039D01*
X0037561Y0174632D01*
X0036800Y0172795D01*
X0036800Y0170805D01*
X0037561Y0168968D01*
X0038968Y0167561D01*
X0040805Y0166800D01*
X0042795Y0166800D01*
X0045321Y0168250D02*
X0048279Y0168250D01*
X0047197Y0169848D02*
X0046403Y0169848D01*
X0046800Y0171447D02*
X0046800Y0171447D01*
X0046696Y0173045D02*
X0046904Y0173045D01*
X0047573Y0174644D02*
X0046027Y0174644D01*
X0044141Y0176242D02*
X0049459Y0176242D01*
X0054141Y0176242D02*
X0064388Y0176242D01*
X0062789Y0177841D02*
X0008600Y0177841D01*
X0008600Y0179439D02*
X0038760Y0179439D01*
X0038719Y0181038D02*
X0008600Y0181038D01*
X0008600Y0182636D02*
X0038719Y0182636D01*
X0038834Y0184235D02*
X0008600Y0184235D01*
X0008600Y0185833D02*
X0067925Y0185833D01*
X0067925Y0184235D02*
X0044766Y0184235D01*
X0041800Y0181800D02*
X0061800Y0181800D01*
X0066800Y0176800D01*
X0081800Y0176800D01*
X0084881Y0176242D02*
X0124700Y0176242D01*
X0124700Y0174644D02*
X0084881Y0174644D01*
X0084881Y0177841D02*
X0124700Y0177841D01*
X0124700Y0179439D02*
X0084561Y0179439D01*
X0083995Y0180940D02*
X0085085Y0182030D01*
X0085675Y0183454D01*
X0085675Y0190146D01*
X0085085Y0191570D01*
X0083995Y0192660D01*
X0082571Y0193250D01*
X0081029Y0193250D01*
X0079605Y0192660D01*
X0078515Y0191570D01*
X0077925Y0190146D01*
X0077925Y0183454D01*
X0078515Y0182030D01*
X0079605Y0180940D01*
X0081029Y0180350D01*
X0082571Y0180350D01*
X0083995Y0180940D01*
X0084092Y0181038D02*
X0089508Y0181038D01*
X0089605Y0180940D02*
X0088515Y0182030D01*
X0087925Y0183454D01*
X0087925Y0190146D01*
X0088515Y0191570D01*
X0089605Y0192660D01*
X0091029Y0193250D01*
X0092571Y0193250D01*
X0093995Y0192660D01*
X0095085Y0191570D01*
X0095675Y0190146D01*
X0095675Y0183454D01*
X0095085Y0182030D01*
X0093995Y0180940D01*
X0092571Y0180350D01*
X0091029Y0180350D01*
X0089605Y0180940D01*
X0088264Y0182636D02*
X0085336Y0182636D01*
X0085675Y0184235D02*
X0087925Y0184235D01*
X0087925Y0185833D02*
X0085675Y0185833D01*
X0085675Y0187432D02*
X0087925Y0187432D01*
X0087925Y0189030D02*
X0085675Y0189030D01*
X0085475Y0190629D02*
X0088125Y0190629D01*
X0089173Y0192227D02*
X0084427Y0192227D01*
X0079173Y0192227D02*
X0074427Y0192227D01*
X0073995Y0192660D02*
X0072571Y0193250D01*
X0071029Y0193250D01*
X0069605Y0192660D01*
X0068515Y0191570D01*
X0067925Y0190146D01*
X0067925Y0183454D01*
X0068515Y0182030D01*
X0069605Y0180940D01*
X0071029Y0180350D01*
X0072571Y0180350D01*
X0073995Y0180940D01*
X0075085Y0182030D01*
X0075675Y0183454D01*
X0075675Y0190146D01*
X0075085Y0191570D01*
X0073995Y0192660D01*
X0075475Y0190629D02*
X0078125Y0190629D01*
X0077925Y0189030D02*
X0075675Y0189030D01*
X0075675Y0187432D02*
X0077925Y0187432D01*
X0077925Y0185833D02*
X0075675Y0185833D01*
X0075675Y0184235D02*
X0077925Y0184235D01*
X0078264Y0182636D02*
X0075336Y0182636D01*
X0074092Y0181038D02*
X0079508Y0181038D01*
X0079039Y0179439D02*
X0067131Y0179439D01*
X0065532Y0181038D02*
X0069508Y0181038D01*
X0068264Y0182636D02*
X0063934Y0182636D01*
X0061191Y0179439D02*
X0044840Y0179439D01*
X0039459Y0176242D02*
X0008600Y0176242D01*
X0008600Y0174644D02*
X0037573Y0174644D01*
X0036904Y0173045D02*
X0008600Y0173045D01*
X0008600Y0171447D02*
X0036800Y0171447D01*
X0037197Y0169848D02*
X0008600Y0169848D01*
X0008600Y0168250D02*
X0038279Y0168250D01*
X0040446Y0166651D02*
X0008600Y0166651D01*
X0008600Y0165053D02*
X0037982Y0165053D01*
X0037073Y0163454D02*
X0008600Y0163454D01*
X0008600Y0161856D02*
X0036800Y0161856D01*
X0037027Y0160257D02*
X0008600Y0160257D01*
X0008600Y0158659D02*
X0037870Y0158659D01*
X0040178Y0157060D02*
X0008600Y0157060D01*
X0008600Y0155462D02*
X0038390Y0155462D01*
X0037243Y0153863D02*
X0008600Y0153863D01*
X0008600Y0152265D02*
X0036800Y0152265D01*
X0036858Y0150666D02*
X0008600Y0150666D01*
X0008600Y0149068D02*
X0037520Y0149068D01*
X0039190Y0147469D02*
X0008600Y0147469D01*
X0008600Y0145870D02*
X0038799Y0145870D01*
X0037412Y0144272D02*
X0008600Y0144272D01*
X0008600Y0142673D02*
X0036800Y0142673D01*
X0036800Y0141075D02*
X0008600Y0141075D01*
X0008600Y0139476D02*
X0037350Y0139476D01*
X0038651Y0137878D02*
X0008600Y0137878D01*
X0008600Y0136279D02*
X0066296Y0136279D01*
X0067895Y0134681D02*
X0008600Y0134681D01*
X0008600Y0133082D02*
X0069493Y0133082D01*
X0068480Y0131484D02*
X0008600Y0131484D01*
X0008600Y0129885D02*
X0067925Y0129885D01*
X0067925Y0128287D02*
X0008600Y0128287D01*
X0008600Y0104309D02*
X0107480Y0104309D01*
X0108916Y0102711D02*
X0008600Y0102711D01*
X0008600Y0101112D02*
X0018378Y0101112D01*
X0018217Y0100995D02*
X0017605Y0100383D01*
X0017096Y0099683D01*
X0016703Y0098911D01*
X0016435Y0098088D01*
X0016300Y0097233D01*
X0016300Y0097000D01*
X0021600Y0097000D01*
X0021600Y0102300D01*
X0021367Y0102300D01*
X0020512Y0102165D01*
X0019689Y0101897D01*
X0018917Y0101504D01*
X0018217Y0100995D01*
X0017010Y0099514D02*
X0008600Y0099514D01*
X0008600Y0097915D02*
X0016408Y0097915D01*
X0016300Y0096600D02*
X0016300Y0096367D01*
X0016435Y0095512D01*
X0016703Y0094689D01*
X0017096Y0093917D01*
X0017605Y0093217D01*
X0018217Y0092605D01*
X0018917Y0092096D01*
X0019689Y0091703D01*
X0020512Y0091435D01*
X0021367Y0091300D01*
X0021600Y0091300D01*
X0021600Y0096600D01*
X0016300Y0096600D01*
X0016308Y0096317D02*
X0008600Y0096317D01*
X0008600Y0094718D02*
X0016693Y0094718D01*
X0017702Y0093120D02*
X0008600Y0093120D01*
X0008600Y0091521D02*
X0020248Y0091521D01*
X0021600Y0091521D02*
X0022000Y0091521D01*
X0022000Y0091300D02*
X0022233Y0091300D01*
X0023088Y0091435D01*
X0023911Y0091703D01*
X0024683Y0092096D01*
X0025383Y0092605D01*
X0025995Y0093217D01*
X0026504Y0093917D01*
X0026897Y0094689D01*
X0027058Y0095183D01*
X0027561Y0093968D01*
X0028968Y0092561D01*
X0030805Y0091800D01*
X0032795Y0091800D01*
X0034632Y0092561D01*
X0036039Y0093968D01*
X0036800Y0095805D01*
X0036800Y0097795D01*
X0036039Y0099632D01*
X0034632Y0101039D01*
X0032795Y0101800D01*
X0030805Y0101800D01*
X0028968Y0101039D01*
X0027561Y0099632D01*
X0027058Y0098417D01*
X0026897Y0098911D01*
X0026504Y0099683D01*
X0025995Y0100383D01*
X0025383Y0100995D01*
X0024683Y0101504D01*
X0023911Y0101897D01*
X0023088Y0102165D01*
X0022233Y0102300D01*
X0022000Y0102300D01*
X0022000Y0097000D01*
X0021600Y0097000D01*
X0021600Y0096600D01*
X0022000Y0096600D01*
X0022000Y0091300D01*
X0023352Y0091521D02*
X0065248Y0091521D01*
X0065512Y0091435D02*
X0066367Y0091300D01*
X0066714Y0091300D01*
X0066714Y0096714D01*
X0066886Y0096714D01*
X0066886Y0096886D01*
X0072300Y0096886D01*
X0072300Y0097233D01*
X0072165Y0098088D01*
X0071897Y0098911D01*
X0071504Y0099683D01*
X0070995Y0100383D01*
X0070383Y0100995D01*
X0069683Y0101504D01*
X0068911Y0101897D01*
X0068088Y0102165D01*
X0067233Y0102300D01*
X0066886Y0102300D01*
X0066886Y0096886D01*
X0066714Y0096886D01*
X0066714Y0102300D01*
X0066367Y0102300D01*
X0065512Y0102165D01*
X0064689Y0101897D01*
X0063917Y0101504D01*
X0063217Y0100995D01*
X0062605Y0100383D01*
X0062096Y0099683D01*
X0061703Y0098911D01*
X0061435Y0098088D01*
X0061300Y0097233D01*
X0061300Y0096886D01*
X0066714Y0096886D01*
X0066714Y0096714D01*
X0061300Y0096714D01*
X0061300Y0096367D01*
X0061435Y0095512D01*
X0061703Y0094689D01*
X0062096Y0093917D01*
X0062605Y0093217D01*
X0063217Y0092605D01*
X0063917Y0092096D01*
X0064689Y0091703D01*
X0065512Y0091435D01*
X0066714Y0091521D02*
X0066886Y0091521D01*
X0066886Y0091300D02*
X0067233Y0091300D01*
X0068088Y0091435D01*
X0068911Y0091703D01*
X0069683Y0092096D01*
X0070383Y0092605D01*
X0070995Y0093217D01*
X0071504Y0093917D01*
X0071897Y0094689D01*
X0072165Y0095512D01*
X0072300Y0096367D01*
X0072300Y0096714D01*
X0066886Y0096714D01*
X0066886Y0091300D01*
X0068352Y0091521D02*
X0124700Y0091521D01*
X0124700Y0089923D02*
X0008600Y0089923D01*
X0008600Y0088324D02*
X0123719Y0088324D01*
X0123719Y0086726D02*
X0097974Y0086726D01*
X0097795Y0086800D02*
X0095805Y0086800D01*
X0093968Y0086039D01*
X0092561Y0084632D01*
X0091800Y0082795D01*
X0091800Y0080805D01*
X0092561Y0078968D01*
X0093968Y0077561D01*
X0095805Y0076800D01*
X0097795Y0076800D01*
X0099632Y0077561D01*
X0101039Y0078968D01*
X0101800Y0080805D01*
X0101800Y0082795D01*
X0101039Y0084632D01*
X0099632Y0086039D01*
X0097795Y0086800D01*
X0095626Y0086726D02*
X0069248Y0086726D01*
X0068911Y0086897D02*
X0068088Y0087165D01*
X0067233Y0087300D01*
X0066886Y0087300D01*
X0066886Y0081886D01*
X0072300Y0081886D01*
X0072300Y0082233D01*
X0072165Y0083088D01*
X0071897Y0083911D01*
X0071504Y0084683D01*
X0070995Y0085383D01*
X0070383Y0085995D01*
X0069683Y0086504D01*
X0068911Y0086897D01*
X0066886Y0086726D02*
X0066714Y0086726D01*
X0066714Y0087300D02*
X0066367Y0087300D01*
X0065512Y0087165D01*
X0064689Y0086897D01*
X0063917Y0086504D01*
X0063217Y0085995D01*
X0062605Y0085383D01*
X0062096Y0084683D01*
X0061703Y0083911D01*
X0061435Y0083088D01*
X0061300Y0082233D01*
X0061300Y0081886D01*
X0066714Y0081886D01*
X0066714Y0087300D01*
X0064352Y0086726D02*
X0052974Y0086726D01*
X0052795Y0086800D02*
X0050805Y0086800D01*
X0048968Y0086039D01*
X0047561Y0084632D01*
X0046800Y0082795D01*
X0046800Y0080805D01*
X0047561Y0078968D01*
X0048968Y0077561D01*
X0050805Y0076800D01*
X0052795Y0076800D01*
X0054632Y0077561D01*
X0056039Y0078968D01*
X0056800Y0080805D01*
X0056800Y0082795D01*
X0056039Y0084632D01*
X0054632Y0086039D01*
X0052795Y0086800D01*
X0050626Y0086726D02*
X0022974Y0086726D01*
X0022795Y0086800D02*
X0020805Y0086800D01*
X0018968Y0086039D01*
X0017561Y0084632D01*
X0016800Y0082795D01*
X0016800Y0080805D01*
X0017561Y0078968D01*
X0018968Y0077561D01*
X0020805Y0076800D01*
X0022795Y0076800D01*
X0024632Y0077561D01*
X0026039Y0078968D01*
X0026800Y0080805D01*
X0026800Y0082795D01*
X0026039Y0084632D01*
X0024632Y0086039D01*
X0022795Y0086800D01*
X0020626Y0086726D02*
X0008600Y0086726D01*
X0008600Y0085127D02*
X0018056Y0085127D01*
X0017104Y0083529D02*
X0008600Y0083529D01*
X0008600Y0081930D02*
X0016800Y0081930D01*
X0016996Y0080332D02*
X0008600Y0080332D01*
X0008600Y0078733D02*
X0017796Y0078733D01*
X0019998Y0077134D02*
X0008600Y0077134D01*
X0008600Y0075536D02*
X0203701Y0075536D01*
X0203701Y0077134D02*
X0193602Y0077134D01*
X0195804Y0078733D02*
X0203701Y0078733D01*
X0203701Y0080332D02*
X0196604Y0080332D01*
X0196800Y0081930D02*
X0203701Y0081930D01*
X0203701Y0083529D02*
X0196496Y0083529D01*
X0195544Y0085127D02*
X0203701Y0085127D01*
X0203701Y0073937D02*
X0008600Y0073937D01*
X0008600Y0072339D02*
X0203701Y0072339D01*
X0203701Y0070740D02*
X0008600Y0070740D01*
X0008600Y0069142D02*
X0203701Y0069142D01*
X0203701Y0067543D02*
X0008600Y0067543D01*
X0008600Y0065945D02*
X0203701Y0065945D01*
X0203701Y0064346D02*
X0008600Y0064346D01*
X0008600Y0062748D02*
X0203701Y0062748D01*
X0203701Y0061149D02*
X0008600Y0061149D01*
X0008600Y0059551D02*
X0203701Y0059551D01*
X0203701Y0057952D02*
X0008600Y0057952D01*
X0008600Y0056354D02*
X0203701Y0056354D01*
X0203701Y0054755D02*
X0008600Y0054755D01*
X0008600Y0053157D02*
X0203701Y0053157D01*
X0203701Y0051558D02*
X0008600Y0051558D01*
X0008600Y0049960D02*
X0203701Y0049960D01*
X0203701Y0048361D02*
X0008600Y0048361D01*
X0008600Y0046763D02*
X0203701Y0046763D01*
X0203701Y0045164D02*
X0008600Y0045164D01*
X0008600Y0043566D02*
X0203701Y0043566D01*
X0203701Y0041967D02*
X0008600Y0041967D01*
X0008600Y0040369D02*
X0203701Y0040369D01*
X0203701Y0038770D02*
X0008600Y0038770D01*
X0008600Y0037172D02*
X0203701Y0037172D01*
X0203701Y0035573D02*
X0008600Y0035573D01*
X0008600Y0033975D02*
X0203701Y0033975D01*
X0203701Y0032376D02*
X0008600Y0032376D01*
X0008600Y0030778D02*
X0203701Y0030778D01*
X0203701Y0029179D02*
X0008600Y0029179D01*
X0008600Y0027581D02*
X0203701Y0027581D01*
X0203701Y0025982D02*
X0008600Y0025982D01*
X0008600Y0024384D02*
X0203701Y0024384D01*
X0203701Y0022785D02*
X0008600Y0022785D01*
X0008600Y0021187D02*
X0203701Y0021187D01*
X0203701Y0019588D02*
X0008600Y0019588D01*
X0008600Y0017990D02*
X0203701Y0017990D01*
X0203701Y0016391D02*
X0008600Y0016391D01*
X0008600Y0014793D02*
X0203701Y0014793D01*
X0203701Y0013194D02*
X0008600Y0013194D01*
X0008600Y0011596D02*
X0203701Y0011596D01*
X0203701Y0009997D02*
X0008600Y0009997D01*
X0008600Y0008600D02*
X0008600Y0199961D01*
X0203701Y0199961D01*
X0203701Y0008600D01*
X0008600Y0008600D01*
X0064689Y0076703D02*
X0065512Y0076435D01*
X0066367Y0076300D01*
X0066714Y0076300D01*
X0066714Y0081714D01*
X0066886Y0081714D01*
X0066886Y0081886D01*
X0066714Y0081886D01*
X0066714Y0081714D01*
X0061300Y0081714D01*
X0061300Y0081367D01*
X0061435Y0080512D01*
X0061703Y0079689D01*
X0062096Y0078917D01*
X0062605Y0078217D01*
X0063217Y0077605D01*
X0063917Y0077096D01*
X0064689Y0076703D01*
X0063864Y0077134D02*
X0053602Y0077134D01*
X0055804Y0078733D02*
X0062230Y0078733D01*
X0061494Y0080332D02*
X0056604Y0080332D01*
X0056800Y0081930D02*
X0061300Y0081930D01*
X0061579Y0083529D02*
X0056496Y0083529D01*
X0055544Y0085127D02*
X0062419Y0085127D01*
X0066714Y0085127D02*
X0066886Y0085127D01*
X0066886Y0083529D02*
X0066714Y0083529D01*
X0066714Y0081930D02*
X0066886Y0081930D01*
X0066886Y0081714D02*
X0072300Y0081714D01*
X0072300Y0081367D01*
X0072165Y0080512D01*
X0071897Y0079689D01*
X0071504Y0078917D01*
X0070995Y0078217D01*
X0070383Y0077605D01*
X0069683Y0077096D01*
X0068911Y0076703D01*
X0068088Y0076435D01*
X0067233Y0076300D01*
X0066886Y0076300D01*
X0066886Y0081714D01*
X0066886Y0080332D02*
X0066714Y0080332D01*
X0066714Y0078733D02*
X0066886Y0078733D01*
X0066886Y0077134D02*
X0066714Y0077134D01*
X0069736Y0077134D02*
X0094998Y0077134D01*
X0092796Y0078733D02*
X0071370Y0078733D01*
X0072106Y0080332D02*
X0091996Y0080332D01*
X0091800Y0081930D02*
X0072300Y0081930D01*
X0072021Y0083529D02*
X0092104Y0083529D01*
X0093056Y0085127D02*
X0071181Y0085127D01*
X0070898Y0093120D02*
X0093409Y0093120D01*
X0093968Y0092561D02*
X0095805Y0091800D01*
X0097795Y0091800D01*
X0099632Y0092561D01*
X0101039Y0093968D01*
X0101800Y0095805D01*
X0101800Y0097795D01*
X0101039Y0099632D01*
X0099632Y0101039D01*
X0097795Y0101800D01*
X0095805Y0101800D01*
X0093968Y0101039D01*
X0092561Y0099632D01*
X0091800Y0097795D01*
X0091800Y0095805D01*
X0092561Y0093968D01*
X0093968Y0092561D01*
X0092250Y0094718D02*
X0071907Y0094718D01*
X0072292Y0096317D02*
X0091800Y0096317D01*
X0091850Y0097915D02*
X0072192Y0097915D01*
X0071590Y0099514D02*
X0092512Y0099514D01*
X0094145Y0101112D02*
X0070222Y0101112D01*
X0066886Y0101112D02*
X0066714Y0101112D01*
X0066714Y0099514D02*
X0066886Y0099514D01*
X0066886Y0097915D02*
X0066714Y0097915D01*
X0066714Y0096317D02*
X0066886Y0096317D01*
X0066886Y0094718D02*
X0066714Y0094718D01*
X0066714Y0093120D02*
X0066886Y0093120D01*
X0062702Y0093120D02*
X0055191Y0093120D01*
X0054632Y0092561D02*
X0056039Y0093968D01*
X0056800Y0095805D01*
X0056800Y0097795D01*
X0056039Y0099632D01*
X0054632Y0101039D01*
X0052795Y0101800D01*
X0050805Y0101800D01*
X0048968Y0101039D01*
X0047561Y0099632D01*
X0046800Y0097795D01*
X0046039Y0099632D01*
X0044632Y0101039D01*
X0042795Y0101800D01*
X0040805Y0101800D01*
X0038968Y0101039D01*
X0037561Y0099632D01*
X0036800Y0097795D01*
X0036800Y0095805D01*
X0037561Y0093968D01*
X0038968Y0092561D01*
X0040805Y0091800D01*
X0042795Y0091800D01*
X0044632Y0092561D01*
X0046039Y0093968D01*
X0046800Y0095805D01*
X0046800Y0097795D01*
X0046800Y0095805D01*
X0047561Y0093968D01*
X0048968Y0092561D01*
X0050805Y0091800D01*
X0052795Y0091800D01*
X0054632Y0092561D01*
X0056350Y0094718D02*
X0061693Y0094718D01*
X0061308Y0096317D02*
X0056800Y0096317D01*
X0056750Y0097915D02*
X0061408Y0097915D01*
X0062010Y0099514D02*
X0056088Y0099514D01*
X0054455Y0101112D02*
X0063378Y0101112D01*
X0069499Y0107506D02*
X0094100Y0107506D01*
X0092504Y0109105D02*
X0071096Y0109105D01*
X0071758Y0110703D02*
X0091842Y0110703D01*
X0091800Y0112302D02*
X0071800Y0112302D01*
X0071342Y0113900D02*
X0092258Y0113900D01*
X0093428Y0115499D02*
X0070172Y0115499D01*
X0074947Y0121893D02*
X0078653Y0121893D01*
X0077925Y0123491D02*
X0075675Y0123491D01*
X0075675Y0125090D02*
X0077925Y0125090D01*
X0077925Y0126688D02*
X0075675Y0126688D01*
X0075675Y0128287D02*
X0077925Y0128287D01*
X0077925Y0129885D02*
X0075675Y0129885D01*
X0075120Y0131484D02*
X0078480Y0131484D01*
X0079700Y0133082D02*
X0073900Y0133082D01*
X0073834Y0134681D02*
X0079700Y0134681D01*
X0079700Y0136279D02*
X0072236Y0136279D01*
X0070637Y0137878D02*
X0079700Y0137878D01*
X0079700Y0139476D02*
X0077531Y0139476D01*
X0078250Y0141075D02*
X0079555Y0141075D01*
X0081800Y0141800D02*
X0081800Y0126800D01*
X0085675Y0126688D02*
X0087925Y0126688D01*
X0087925Y0125090D02*
X0085675Y0125090D01*
X0085675Y0123491D02*
X0087925Y0123491D01*
X0087925Y0123454D02*
X0088515Y0122030D01*
X0089605Y0120940D01*
X0091029Y0120350D01*
X0092571Y0120350D01*
X0093995Y0120940D01*
X0095085Y0122030D01*
X0095675Y0123454D01*
X0095675Y0130146D01*
X0095085Y0131570D01*
X0093995Y0132660D01*
X0092571Y0133250D01*
X0091029Y0133250D01*
X0089605Y0132660D01*
X0088515Y0131570D01*
X0087925Y0130146D01*
X0087925Y0123454D01*
X0088653Y0121893D02*
X0084947Y0121893D01*
X0085675Y0128287D02*
X0087925Y0128287D01*
X0087925Y0129885D02*
X0085675Y0129885D01*
X0085120Y0131484D02*
X0088480Y0131484D01*
X0090626Y0133082D02*
X0083900Y0133082D01*
X0081800Y0141800D02*
X0076800Y0146800D01*
X0066800Y0146800D01*
X0056800Y0156800D01*
X0049729Y0156800D01*
X0044729Y0161800D01*
X0041800Y0161800D01*
X0045315Y0158244D02*
X0044632Y0157561D01*
X0042795Y0156800D01*
X0040805Y0156800D01*
X0042795Y0156800D01*
X0044632Y0156039D01*
X0046039Y0154632D01*
X0046800Y0152795D01*
X0046800Y0152699D01*
X0046800Y0152699D01*
X0046800Y0152795D01*
X0047561Y0154632D01*
X0048244Y0155315D01*
X0047629Y0155930D01*
X0045315Y0158244D01*
X0046499Y0157060D02*
X0043422Y0157060D01*
X0045209Y0155462D02*
X0048098Y0155462D01*
X0047243Y0153863D02*
X0046357Y0153863D01*
X0044729Y0151800D02*
X0049729Y0146800D01*
X0058745Y0146800D01*
X0071800Y0133745D01*
X0071800Y0126800D01*
X0064698Y0137878D02*
X0055656Y0137878D01*
X0055383Y0137605D02*
X0055995Y0138217D01*
X0056504Y0138917D01*
X0056897Y0139689D01*
X0057165Y0140512D01*
X0057300Y0141367D01*
X0057300Y0141600D01*
X0052000Y0141600D01*
X0052000Y0136300D01*
X0052233Y0136300D01*
X0053088Y0136435D01*
X0053911Y0136703D01*
X0054683Y0137096D01*
X0055383Y0137605D01*
X0056789Y0139476D02*
X0063099Y0139476D01*
X0061501Y0141075D02*
X0057254Y0141075D01*
X0057230Y0142673D02*
X0059902Y0142673D01*
X0058304Y0144272D02*
X0056713Y0144272D01*
X0052000Y0141075D02*
X0051600Y0141075D01*
X0051600Y0139476D02*
X0052000Y0139476D01*
X0052000Y0137878D02*
X0051600Y0137878D01*
X0047944Y0137878D02*
X0044949Y0137878D01*
X0046249Y0139476D02*
X0046811Y0139476D01*
X0046542Y0143417D02*
X0046039Y0144632D01*
X0044632Y0146039D01*
X0042795Y0146800D01*
X0040805Y0146800D01*
X0042795Y0146800D01*
X0044632Y0147561D01*
X0045315Y0148244D01*
X0047629Y0145930D01*
X0047890Y0145669D01*
X0047605Y0145383D01*
X0047096Y0144683D01*
X0046703Y0143911D01*
X0046542Y0143417D01*
X0046887Y0144272D02*
X0046188Y0144272D01*
X0044801Y0145870D02*
X0047689Y0145870D01*
X0046090Y0147469D02*
X0044410Y0147469D01*
X0044729Y0151800D02*
X0041800Y0151800D01*
X0046800Y0162699D02*
X0046800Y0162699D01*
X0046800Y0162795D01*
X0046800Y0162699D01*
X0046527Y0163454D02*
X0047073Y0163454D01*
X0047982Y0165053D02*
X0045618Y0165053D01*
X0051800Y0161800D02*
X0063321Y0161800D01*
X0067496Y0157625D01*
X0100975Y0157625D01*
X0101800Y0156800D01*
X0098719Y0155462D02*
X0075660Y0155462D01*
X0077714Y0153863D02*
X0099336Y0153863D01*
X0089174Y0163454D02*
X0077884Y0163454D01*
X0076602Y0165053D02*
X0088433Y0165053D01*
X0088876Y0169848D02*
X0077760Y0169848D01*
X0078250Y0171447D02*
X0124700Y0171447D01*
X0124700Y0173045D02*
X0078053Y0173045D01*
X0078719Y0174644D02*
X0077011Y0174644D01*
X0066589Y0174644D02*
X0056027Y0174644D01*
X0065046Y0173045D02*
X0065547Y0173045D01*
X0066998Y0165053D02*
X0055618Y0165053D01*
X0064637Y0163454D02*
X0065716Y0163454D01*
X0067925Y0187432D02*
X0008600Y0187432D01*
X0008600Y0189030D02*
X0067925Y0189030D01*
X0068125Y0190629D02*
X0008600Y0190629D01*
X0008600Y0192227D02*
X0069173Y0192227D01*
X0094427Y0192227D02*
X0099173Y0192227D01*
X0099605Y0192660D02*
X0098515Y0191570D01*
X0097925Y0190146D01*
X0097925Y0183454D01*
X0098515Y0182030D01*
X0099605Y0180940D01*
X0101029Y0180350D01*
X0102571Y0180350D01*
X0103995Y0180940D01*
X0105085Y0182030D01*
X0105675Y0183454D01*
X0105675Y0190146D01*
X0105085Y0191570D01*
X0103995Y0192660D01*
X0102571Y0193250D01*
X0101029Y0193250D01*
X0099605Y0192660D01*
X0098125Y0190629D02*
X0095475Y0190629D01*
X0095675Y0189030D02*
X0097925Y0189030D01*
X0097925Y0187432D02*
X0095675Y0187432D01*
X0095675Y0185833D02*
X0097925Y0185833D01*
X0097925Y0184235D02*
X0095675Y0184235D01*
X0095336Y0182636D02*
X0098264Y0182636D01*
X0099508Y0181038D02*
X0094092Y0181038D01*
X0104092Y0181038D02*
X0109508Y0181038D01*
X0109605Y0180940D02*
X0111029Y0180350D01*
X0112571Y0180350D01*
X0113995Y0180940D01*
X0115085Y0182030D01*
X0115675Y0183454D01*
X0115675Y0190146D01*
X0115085Y0191570D01*
X0113995Y0192660D01*
X0112571Y0193250D01*
X0111029Y0193250D01*
X0109605Y0192660D01*
X0108515Y0191570D01*
X0107925Y0190146D01*
X0107925Y0183454D01*
X0108515Y0182030D01*
X0109605Y0180940D01*
X0108264Y0182636D02*
X0105336Y0182636D01*
X0105675Y0184235D02*
X0107925Y0184235D01*
X0107925Y0185833D02*
X0105675Y0185833D01*
X0105675Y0187432D02*
X0107925Y0187432D01*
X0107925Y0189030D02*
X0105675Y0189030D01*
X0105475Y0190629D02*
X0108125Y0190629D01*
X0109173Y0192227D02*
X0104427Y0192227D01*
X0114427Y0192227D02*
X0119173Y0192227D01*
X0118125Y0190629D02*
X0115475Y0190629D01*
X0115675Y0189030D02*
X0117925Y0189030D01*
X0117925Y0187432D02*
X0115675Y0187432D01*
X0115675Y0185833D02*
X0117925Y0185833D01*
X0117925Y0184235D02*
X0115675Y0184235D01*
X0115336Y0182636D02*
X0118264Y0182636D01*
X0119508Y0181038D02*
X0114092Y0181038D01*
X0124092Y0181038D02*
X0124700Y0181038D01*
X0128900Y0181038D02*
X0129508Y0181038D01*
X0128900Y0179439D02*
X0186106Y0179439D01*
X0185940Y0179605D02*
X0187030Y0178515D01*
X0188454Y0177925D01*
X0195146Y0177925D01*
X0196570Y0178515D01*
X0197660Y0179605D01*
X0198250Y0181029D01*
X0198250Y0182571D01*
X0197660Y0183995D01*
X0196570Y0185085D01*
X0195146Y0185675D01*
X0188454Y0185675D01*
X0187030Y0185085D01*
X0185940Y0183995D01*
X0185350Y0182571D01*
X0185350Y0181029D01*
X0185940Y0179605D01*
X0185350Y0181038D02*
X0184092Y0181038D01*
X0183995Y0180940D02*
X0185085Y0182030D01*
X0185675Y0183454D01*
X0185675Y0190146D01*
X0185085Y0191570D01*
X0183995Y0192660D01*
X0182571Y0193250D01*
X0181029Y0193250D01*
X0179605Y0192660D01*
X0178515Y0191570D01*
X0177925Y0190146D01*
X0177925Y0183454D01*
X0178515Y0182030D01*
X0179605Y0180940D01*
X0181029Y0180350D01*
X0182571Y0180350D01*
X0183995Y0180940D01*
X0185336Y0182636D02*
X0185378Y0182636D01*
X0185675Y0184235D02*
X0186180Y0184235D01*
X0185675Y0185833D02*
X0203701Y0185833D01*
X0203701Y0184235D02*
X0197420Y0184235D01*
X0198222Y0182636D02*
X0203701Y0182636D01*
X0203701Y0181038D02*
X0198250Y0181038D01*
X0197494Y0179439D02*
X0203701Y0179439D01*
X0203701Y0177841D02*
X0128900Y0177841D01*
X0128900Y0176242D02*
X0203701Y0176242D01*
X0203701Y0174644D02*
X0197011Y0174644D01*
X0196570Y0175085D02*
X0195146Y0175675D01*
X0188454Y0175675D01*
X0187030Y0175085D01*
X0185940Y0173995D01*
X0185350Y0172571D01*
X0185350Y0171029D01*
X0185940Y0169605D01*
X0187030Y0168515D01*
X0188454Y0167925D01*
X0195146Y0167925D01*
X0196570Y0168515D01*
X0197660Y0169605D01*
X0198250Y0171029D01*
X0198250Y0172571D01*
X0197660Y0173995D01*
X0196570Y0175085D01*
X0198053Y0173045D02*
X0203701Y0173045D01*
X0203701Y0171447D02*
X0198250Y0171447D01*
X0197760Y0169848D02*
X0203701Y0169848D01*
X0203701Y0168250D02*
X0195929Y0168250D01*
X0195146Y0165675D02*
X0196570Y0165085D01*
X0197660Y0163995D01*
X0198250Y0162571D01*
X0198250Y0161029D01*
X0197660Y0159605D01*
X0196570Y0158515D01*
X0195146Y0157925D01*
X0188454Y0157925D01*
X0187030Y0158515D01*
X0185940Y0159605D01*
X0185350Y0161029D01*
X0185350Y0162571D01*
X0185940Y0163995D01*
X0187030Y0165085D01*
X0188454Y0165675D01*
X0195146Y0165675D01*
X0196602Y0165053D02*
X0203701Y0165053D01*
X0203701Y0166651D02*
X0128900Y0166651D01*
X0128900Y0165053D02*
X0186998Y0165053D01*
X0185716Y0163454D02*
X0128900Y0163454D01*
X0128900Y0161856D02*
X0185350Y0161856D01*
X0185670Y0160257D02*
X0128900Y0160257D01*
X0128900Y0158659D02*
X0186887Y0158659D01*
X0187940Y0155462D02*
X0128900Y0155462D01*
X0128900Y0157060D02*
X0203701Y0157060D01*
X0203701Y0155462D02*
X0195660Y0155462D01*
X0195146Y0155675D02*
X0196570Y0155085D01*
X0197660Y0153995D01*
X0198250Y0152571D01*
X0198250Y0151029D01*
X0197660Y0149605D01*
X0196570Y0148515D01*
X0195146Y0147925D01*
X0188454Y0147925D01*
X0187030Y0148515D01*
X0185940Y0149605D01*
X0185350Y0151029D01*
X0185350Y0152571D01*
X0185940Y0153995D01*
X0187030Y0155085D01*
X0188454Y0155675D01*
X0195146Y0155675D01*
X0197714Y0153863D02*
X0203701Y0153863D01*
X0203701Y0152265D02*
X0198250Y0152265D01*
X0198099Y0150666D02*
X0203701Y0150666D01*
X0203701Y0149068D02*
X0197122Y0149068D01*
X0195146Y0145675D02*
X0196570Y0145085D01*
X0197660Y0143995D01*
X0198250Y0142571D01*
X0198250Y0141029D01*
X0197660Y0139605D01*
X0196570Y0138515D01*
X0195146Y0137925D01*
X0188454Y0137925D01*
X0187030Y0138515D01*
X0185940Y0139605D01*
X0185350Y0141029D01*
X0185350Y0142571D01*
X0185940Y0143995D01*
X0187030Y0145085D01*
X0188454Y0145675D01*
X0195146Y0145675D01*
X0197383Y0144272D02*
X0203701Y0144272D01*
X0203701Y0145870D02*
X0128900Y0145870D01*
X0128900Y0144272D02*
X0186217Y0144272D01*
X0185393Y0142673D02*
X0128900Y0142673D01*
X0128900Y0141075D02*
X0185350Y0141075D01*
X0186069Y0139476D02*
X0128900Y0139476D01*
X0128900Y0137878D02*
X0203701Y0137878D01*
X0203701Y0139476D02*
X0197531Y0139476D01*
X0198250Y0141075D02*
X0203701Y0141075D01*
X0203701Y0142673D02*
X0198207Y0142673D01*
X0203701Y0147469D02*
X0128900Y0147469D01*
X0128900Y0149068D02*
X0186478Y0149068D01*
X0185501Y0150666D02*
X0128900Y0150666D01*
X0128900Y0152265D02*
X0185350Y0152265D01*
X0185886Y0153863D02*
X0128900Y0153863D01*
X0128900Y0168250D02*
X0187671Y0168250D01*
X0185840Y0169848D02*
X0128900Y0169848D01*
X0128900Y0171447D02*
X0185350Y0171447D01*
X0185547Y0173045D02*
X0128900Y0173045D01*
X0128900Y0174644D02*
X0186589Y0174644D01*
X0179508Y0181038D02*
X0174092Y0181038D01*
X0173995Y0180940D02*
X0175085Y0182030D01*
X0175675Y0183454D01*
X0175675Y0190146D01*
X0175085Y0191570D01*
X0173995Y0192660D01*
X0172571Y0193250D01*
X0171029Y0193250D01*
X0169605Y0192660D01*
X0168515Y0191570D01*
X0167925Y0190146D01*
X0167925Y0183454D01*
X0168515Y0182030D01*
X0169605Y0180940D01*
X0171029Y0180350D01*
X0172571Y0180350D01*
X0173995Y0180940D01*
X0175336Y0182636D02*
X0178264Y0182636D01*
X0177925Y0184235D02*
X0175675Y0184235D01*
X0175675Y0185833D02*
X0177925Y0185833D01*
X0177925Y0187432D02*
X0175675Y0187432D01*
X0175675Y0189030D02*
X0177925Y0189030D01*
X0178125Y0190629D02*
X0175475Y0190629D01*
X0174427Y0192227D02*
X0179173Y0192227D01*
X0184427Y0192227D02*
X0203701Y0192227D01*
X0203701Y0190629D02*
X0185475Y0190629D01*
X0185675Y0189030D02*
X0203701Y0189030D01*
X0203701Y0187432D02*
X0185675Y0187432D01*
X0169173Y0192227D02*
X0164427Y0192227D01*
X0163995Y0192660D02*
X0162571Y0193250D01*
X0161029Y0193250D01*
X0159605Y0192660D01*
X0158515Y0191570D01*
X0157925Y0190146D01*
X0157925Y0183454D01*
X0158515Y0182030D01*
X0159605Y0180940D01*
X0161029Y0180350D01*
X0162571Y0180350D01*
X0163995Y0180940D01*
X0165085Y0182030D01*
X0165675Y0183454D01*
X0165675Y0190146D01*
X0165085Y0191570D01*
X0163995Y0192660D01*
X0165475Y0190629D02*
X0168125Y0190629D01*
X0167925Y0189030D02*
X0165675Y0189030D01*
X0165675Y0187432D02*
X0167925Y0187432D01*
X0167925Y0185833D02*
X0165675Y0185833D01*
X0165675Y0184235D02*
X0167925Y0184235D01*
X0168264Y0182636D02*
X0165336Y0182636D01*
X0164092Y0181038D02*
X0169508Y0181038D01*
X0159508Y0181038D02*
X0154092Y0181038D01*
X0153995Y0180940D02*
X0155085Y0182030D01*
X0155675Y0183454D01*
X0155675Y0190146D01*
X0155085Y0191570D01*
X0153995Y0192660D01*
X0152571Y0193250D01*
X0151029Y0193250D01*
X0149605Y0192660D01*
X0148515Y0191570D01*
X0147925Y0190146D01*
X0147925Y0183454D01*
X0148515Y0182030D01*
X0149605Y0180940D01*
X0151029Y0180350D01*
X0152571Y0180350D01*
X0153995Y0180940D01*
X0155336Y0182636D02*
X0158264Y0182636D01*
X0157925Y0184235D02*
X0155675Y0184235D01*
X0155675Y0185833D02*
X0157925Y0185833D01*
X0157925Y0187432D02*
X0155675Y0187432D01*
X0155675Y0189030D02*
X0157925Y0189030D01*
X0158125Y0190629D02*
X0155475Y0190629D01*
X0154427Y0192227D02*
X0159173Y0192227D01*
X0149173Y0192227D02*
X0144427Y0192227D01*
X0143995Y0192660D02*
X0142571Y0193250D01*
X0141029Y0193250D01*
X0139605Y0192660D01*
X0138515Y0191570D01*
X0137925Y0190146D01*
X0137925Y0183454D01*
X0138515Y0182030D01*
X0139605Y0180940D01*
X0141029Y0180350D01*
X0142571Y0180350D01*
X0143995Y0180940D01*
X0145085Y0182030D01*
X0145675Y0183454D01*
X0145675Y0190146D01*
X0145085Y0191570D01*
X0143995Y0192660D01*
X0145475Y0190629D02*
X0148125Y0190629D01*
X0147925Y0189030D02*
X0145675Y0189030D01*
X0145675Y0187432D02*
X0147925Y0187432D01*
X0147925Y0185833D02*
X0145675Y0185833D01*
X0145675Y0184235D02*
X0147925Y0184235D01*
X0148264Y0182636D02*
X0145336Y0182636D01*
X0144092Y0181038D02*
X0149508Y0181038D01*
X0139508Y0181038D02*
X0134092Y0181038D01*
X0135336Y0182636D02*
X0138264Y0182636D01*
X0137925Y0184235D02*
X0135675Y0184235D01*
X0135675Y0185833D02*
X0137925Y0185833D01*
X0137925Y0187432D02*
X0135675Y0187432D01*
X0135675Y0189030D02*
X0137925Y0189030D01*
X0138125Y0190629D02*
X0135475Y0190629D01*
X0134427Y0192227D02*
X0139173Y0192227D01*
X0131800Y0186800D02*
X0126800Y0186800D01*
X0126800Y0086800D01*
X0129881Y0085127D02*
X0188056Y0085127D01*
X0187104Y0083529D02*
X0101496Y0083529D01*
X0101800Y0081930D02*
X0186800Y0081930D01*
X0186996Y0080332D02*
X0101604Y0080332D01*
X0100804Y0078733D02*
X0187796Y0078733D01*
X0189998Y0077134D02*
X0098602Y0077134D01*
X0100544Y0085127D02*
X0123719Y0085127D01*
X0128900Y0089923D02*
X0133182Y0089923D01*
X0131714Y0091521D02*
X0128900Y0091521D01*
X0128900Y0093120D02*
X0131052Y0093120D01*
X0131000Y0094718D02*
X0128900Y0094718D01*
X0128900Y0096317D02*
X0131399Y0096317D01*
X0132420Y0097915D02*
X0128900Y0097915D01*
X0124700Y0097915D02*
X0101750Y0097915D01*
X0101800Y0096317D02*
X0124700Y0096317D01*
X0124700Y0094718D02*
X0101350Y0094718D01*
X0100191Y0093120D02*
X0124700Y0093120D01*
X0124700Y0099514D02*
X0101088Y0099514D01*
X0099455Y0101112D02*
X0124700Y0101112D01*
X0117472Y0102711D02*
X0114842Y0102711D01*
X0116277Y0104309D02*
X0117171Y0104309D01*
X0117171Y0105908D02*
X0116850Y0105908D01*
X0116880Y0107506D02*
X0117171Y0107506D01*
X0117171Y0109105D02*
X0116372Y0109105D01*
X0117286Y0110703D02*
X0115098Y0110703D01*
X0111879Y0110703D02*
X0111879Y0110703D01*
X0111879Y0109105D02*
X0111879Y0109105D01*
X0111879Y0107506D02*
X0111879Y0107506D01*
X0111879Y0105908D02*
X0111879Y0105908D01*
X0111879Y0104309D02*
X0111879Y0104309D01*
X0111879Y0102711D02*
X0111879Y0102711D01*
X0103995Y0120940D02*
X0105085Y0122030D01*
X0105675Y0123454D01*
X0105675Y0130146D01*
X0105085Y0131570D01*
X0103995Y0132660D01*
X0102571Y0133250D01*
X0101029Y0133250D01*
X0099605Y0132660D01*
X0098515Y0131570D01*
X0097925Y0130146D01*
X0097925Y0123454D01*
X0098515Y0122030D01*
X0099605Y0120940D01*
X0101029Y0120350D01*
X0102571Y0120350D01*
X0103995Y0120940D01*
X0104947Y0121893D02*
X0108653Y0121893D01*
X0107925Y0123491D02*
X0105675Y0123491D01*
X0105675Y0125090D02*
X0107925Y0125090D01*
X0107925Y0126688D02*
X0105675Y0126688D01*
X0105675Y0128287D02*
X0107925Y0128287D01*
X0107925Y0129885D02*
X0105675Y0129885D01*
X0105120Y0131484D02*
X0108480Y0131484D01*
X0110626Y0133082D02*
X0102974Y0133082D01*
X0100626Y0133082D02*
X0092974Y0133082D01*
X0095120Y0131484D02*
X0098480Y0131484D01*
X0097925Y0129885D02*
X0095675Y0129885D01*
X0095675Y0128287D02*
X0097925Y0128287D01*
X0097925Y0126688D02*
X0095675Y0126688D01*
X0095675Y0125090D02*
X0097925Y0125090D01*
X0097925Y0123491D02*
X0095675Y0123491D01*
X0094947Y0121893D02*
X0098653Y0121893D01*
X0128900Y0136279D02*
X0203701Y0136279D01*
X0203701Y0134681D02*
X0196974Y0134681D01*
X0198038Y0133082D02*
X0203701Y0133082D01*
X0203701Y0131484D02*
X0198250Y0131484D01*
X0197776Y0129885D02*
X0203701Y0129885D01*
X0203701Y0128287D02*
X0196019Y0128287D01*
X0203701Y0126688D02*
X0185675Y0126688D01*
X0185675Y0125090D02*
X0203701Y0125090D01*
X0187581Y0128287D02*
X0185675Y0128287D01*
X0185675Y0129885D02*
X0185824Y0129885D01*
X0185350Y0131484D02*
X0185120Y0131484D01*
X0196713Y0158659D02*
X0203701Y0158659D01*
X0203701Y0160257D02*
X0197930Y0160257D01*
X0198250Y0161856D02*
X0203701Y0161856D01*
X0203701Y0163454D02*
X0197884Y0163454D01*
X0203701Y0193826D02*
X0008600Y0193826D01*
X0008600Y0195424D02*
X0203701Y0195424D01*
X0203701Y0197023D02*
X0008600Y0197023D01*
X0008600Y0198621D02*
X0203701Y0198621D01*
X0129173Y0192227D02*
X0124427Y0192227D01*
X0125475Y0190629D02*
X0128125Y0190629D01*
X0127925Y0189030D02*
X0125675Y0189030D01*
X0049145Y0101112D02*
X0044455Y0101112D01*
X0046088Y0099514D02*
X0047512Y0099514D01*
X0046850Y0097915D02*
X0046750Y0097915D01*
X0046800Y0096317D02*
X0046800Y0096317D01*
X0046350Y0094718D02*
X0047250Y0094718D01*
X0048409Y0093120D02*
X0045191Y0093120D01*
X0038409Y0093120D02*
X0035191Y0093120D01*
X0036350Y0094718D02*
X0037250Y0094718D01*
X0036800Y0096317D02*
X0036800Y0096317D01*
X0036750Y0097915D02*
X0036850Y0097915D01*
X0037512Y0099514D02*
X0036088Y0099514D01*
X0034455Y0101112D02*
X0039145Y0101112D01*
X0029145Y0101112D02*
X0025222Y0101112D01*
X0026590Y0099514D02*
X0027512Y0099514D01*
X0027250Y0094718D02*
X0026907Y0094718D01*
X0025898Y0093120D02*
X0028409Y0093120D01*
X0022000Y0093120D02*
X0021600Y0093120D01*
X0021600Y0094718D02*
X0022000Y0094718D01*
X0022000Y0096317D02*
X0021600Y0096317D01*
X0021600Y0097915D02*
X0022000Y0097915D01*
X0022000Y0099514D02*
X0021600Y0099514D01*
X0021600Y0101112D02*
X0022000Y0101112D01*
X0025544Y0085127D02*
X0048056Y0085127D01*
X0047104Y0083529D02*
X0026496Y0083529D01*
X0026800Y0081930D02*
X0046800Y0081930D01*
X0046996Y0080332D02*
X0026604Y0080332D01*
X0025804Y0078733D02*
X0047796Y0078733D01*
X0049998Y0077134D02*
X0023602Y0077134D01*
D17*
X0031800Y0131800D03*
X0041800Y0181800D03*
X0031800Y0186800D03*
X0081800Y0176800D03*
X0101800Y0156800D03*
X0121800Y0161800D03*
X0151800Y0146800D03*
X0161800Y0166800D03*
X0176800Y0091800D03*
X0151800Y0086800D03*
X0126800Y0086800D03*
D18*
X0091800Y0166800D03*
M02*
